<svg width="301" height="50" viewBox="0 0 301 50" fill="none" xmlns="http://www.w3.org/2000/svg">
<mask id="path-1-outside-1_30_151" maskUnits="userSpaceOnUse" x="-0.925781" y="-0.992188" width="302" height="51" fill="black">
<rect fill="white" x="-0.925781" y="-0.992188" width="302" height="51"/>
<path d="M34.0078 31.4492C34.0078 31.8138 33.9427 32.1523 33.8125 32.4648C33.6823 32.7773 33.5 33.0508 33.2656 33.2852C33.0443 33.5065 32.7773 33.6823 32.4648 33.8125C32.1523 33.9427 31.8138 34.0078 31.4492 34.0078H13.1289C12.6602 34.0078 12.1523 33.9557 11.6055 33.8516C11.0716 33.7344 10.5378 33.5586 10.0039 33.3242C9.48307 33.0898 8.98177 32.7904 8.5 32.4258C8.01823 32.0482 7.58854 31.599 7.21094 31.0781C6.84635 30.5443 6.55339 29.9323 6.33203 29.2422C6.11068 28.5391 6 27.7513 6 26.8789V13.1289C6 12.6602 6.05208 12.1589 6.15625 11.625C6.27344 11.0781 6.44922 10.5443 6.68359 10.0234C6.91797 9.48958 7.22396 8.98177 7.60156 8.5C7.97917 8.01823 8.42839 7.59505 8.94922 7.23047C9.48307 6.85286 10.0951 6.55339 10.7852 6.33203C11.4753 6.11068 12.2565 6 13.1289 6H33.7734V11.0781H13.1289C12.4648 11.0781 11.957 11.2539 11.6055 11.6055C11.2539 11.957 11.0781 12.4779 11.0781 13.168V26.8789C11.0781 27.5299 11.2539 28.0378 11.6055 28.4023C11.9701 28.7539 12.4779 28.9297 13.1289 28.9297H28.9297V22.5625H15.4141V17.4453H31.4492C31.8138 17.4453 32.1523 17.5169 32.4648 17.6602C32.7773 17.7904 33.0443 17.9727 33.2656 18.207C33.5 18.4414 33.6823 18.7148 33.8125 19.0273C33.9427 19.3268 34.0078 19.6523 34.0078 20.0039V31.4492ZM60.5312 27.0156C60.5312 27.7188 60.4076 28.4805 60.1602 29.3008C59.9128 30.1081 59.5091 30.8633 58.9492 31.5664C58.4023 32.2565 57.6797 32.8359 56.7812 33.3047C55.8958 33.7734 54.8151 34.0078 53.5391 34.0078H44.3789C43.6758 34.0078 42.9141 33.8841 42.0938 33.6367C41.2865 33.3893 40.5312 32.9922 39.8281 32.4453C39.138 31.8854 38.5586 31.1628 38.0898 30.2773C37.6211 29.3789 37.3867 28.2917 37.3867 27.0156C37.3867 26.3125 37.5104 25.5508 37.7578 24.7305C38.0052 23.9102 38.4023 23.1549 38.9492 22.4648C39.5091 21.7617 40.2318 21.1758 41.1172 20.707C42.0156 20.2383 43.1029 20.0039 44.3789 20.0039H53.5391V24.8477H44.3789C43.6888 24.8477 43.1549 25.0625 42.7773 25.4922C42.3997 25.9089 42.2109 26.4297 42.2109 27.0547C42.2109 27.7188 42.4258 28.2396 42.8555 28.6172C43.2982 28.9818 43.819 29.1641 44.418 29.1641H53.5391C54.2292 29.1641 54.763 28.9557 55.1406 28.5391C55.5182 28.1224 55.707 27.6016 55.707 26.9766V19.8867C55.707 19.2227 55.4987 18.6953 55.082 18.3047C54.6784 17.9141 54.1641 17.7188 53.5391 17.7188H42.3867V12.8945H53.5391C54.2422 12.8945 54.9974 13.0182 55.8047 13.2656C56.625 13.513 57.3802 13.9167 58.0703 14.4766C58.7734 15.0234 59.3594 15.7461 59.8281 16.6445C60.2969 17.5299 60.5312 18.6107 60.5312 19.8867V27.0156ZM83.7148 34.0078H78.6367V20.0039C78.6367 19.3398 78.4609 18.8385 78.1094 18.5C77.7578 18.1484 77.237 17.9727 76.5469 17.9727H69.9453V34.0078H64.8672V15.4141C64.8672 15.0625 64.9323 14.737 65.0625 14.4375C65.1927 14.125 65.375 13.8581 65.6094 13.6367C65.8438 13.4023 66.1172 13.2201 66.4297 13.0898C66.7422 12.9596 67.0742 12.8945 67.4258 12.8945H76.5859C77.2891 12.8945 78.0443 13.0182 78.8516 13.2656C79.6589 13.513 80.4271 13.9102 81.1562 14.457V12.8945H88.0312C88.513 12.8945 89.0208 12.9531 89.5547 13.0703C90.0885 13.1745 90.6159 13.3438 91.1367 13.5781C91.6706 13.8125 92.1784 14.1185 92.6602 14.4961C93.1419 14.8607 93.5651 15.3099 93.9297 15.8438C94.2943 16.3646 94.5872 16.9701 94.8086 17.6602C95.0299 18.3503 95.1406 19.1315 95.1406 20.0039V34.0078H90.0625V20.0039C90.0625 19.3398 89.8932 18.8385 89.5547 18.5C89.2292 18.1484 88.7214 17.9727 88.0312 17.9727H83.4609C83.6302 18.5977 83.7148 19.2747 83.7148 20.0039V34.0078ZM122.543 19.8867C122.543 20.5898 122.419 21.3516 122.172 22.1719C121.924 22.9792 121.521 23.7344 120.961 24.4375C120.414 25.1276 119.691 25.707 118.793 26.1758C117.908 26.6445 116.827 26.8789 115.551 26.8789H106.391V22.0547H115.551C116.241 22.0547 116.775 21.8464 117.152 21.4297C117.53 21 117.719 20.4727 117.719 19.8477C117.719 19.1836 117.504 18.6628 117.074 18.2852C116.658 17.9076 116.15 17.7188 115.551 17.7188H106.391C105.701 17.7188 105.167 17.9336 104.789 18.3633C104.411 18.7799 104.223 19.3008 104.223 19.9258V27.0156C104.223 27.6927 104.431 28.2201 104.848 28.5977C105.277 28.9753 105.805 29.1641 106.43 29.1641H115.551V34.0078H106.391C105.688 34.0078 104.926 33.8841 104.105 33.6367C103.298 33.3893 102.543 32.9922 101.84 32.4453C101.15 31.8854 100.57 31.1628 100.102 30.2773C99.6328 29.3789 99.3984 28.2917 99.3984 27.0156V19.8867C99.3984 19.1836 99.5221 18.4284 99.7695 17.6211C100.017 16.8008 100.414 16.0456 100.961 15.3555C101.521 14.6523 102.243 14.0664 103.129 13.5977C104.027 13.1289 105.115 12.8945 106.391 12.8945H115.551C116.254 12.8945 117.009 13.0182 117.816 13.2656C118.637 13.513 119.392 13.9167 120.082 14.4766C120.785 15.0234 121.371 15.7461 121.84 16.6445C122.309 17.5299 122.543 18.6107 122.543 19.8867ZM167.172 31.4492C167.172 31.8138 167.107 32.1523 166.977 32.4648C166.846 32.7773 166.664 33.0508 166.43 33.2852C166.208 33.5065 165.941 33.6823 165.629 33.8125C165.316 33.9427 164.978 34.0078 164.613 34.0078H146.293C145.824 34.0078 145.316 33.9557 144.77 33.8516C144.236 33.7344 143.702 33.5586 143.168 33.3242C142.647 33.0898 142.146 32.7904 141.664 32.4258C141.182 32.0482 140.753 31.599 140.375 31.0781C140.01 30.5443 139.717 29.9323 139.496 29.2422C139.275 28.5391 139.164 27.7513 139.164 26.8789V13.1289C139.164 12.6602 139.216 12.1589 139.32 11.625C139.438 11.0781 139.613 10.5443 139.848 10.0234C140.082 9.48958 140.388 8.98177 140.766 8.5C141.143 8.01823 141.592 7.59505 142.113 7.23047C142.647 6.85286 143.259 6.55339 143.949 6.33203C144.639 6.11068 145.421 6 146.293 6H166.938V11.0781H146.293C145.629 11.0781 145.121 11.2539 144.77 11.6055C144.418 11.957 144.242 12.4779 144.242 13.168V26.8789C144.242 27.5299 144.418 28.0378 144.77 28.4023C145.134 28.7539 145.642 28.9297 146.293 28.9297H162.094V22.5625H148.578V17.4453H164.613C164.978 17.4453 165.316 17.5169 165.629 17.6602C165.941 17.7904 166.208 17.9727 166.43 18.207C166.664 18.4414 166.846 18.7148 166.977 19.0273C167.107 19.3268 167.172 19.6523 167.172 20.0039V31.4492ZM193.695 27.0156C193.695 27.7188 193.572 28.4805 193.324 29.3008C193.077 30.1081 192.673 30.8633 192.113 31.5664C191.566 32.2565 190.844 32.8359 189.945 33.3047C189.06 33.7734 187.979 34.0078 186.703 34.0078H177.543C176.84 34.0078 176.078 33.8841 175.258 33.6367C174.451 33.3893 173.695 32.9922 172.992 32.4453C172.302 31.8854 171.723 31.1628 171.254 30.2773C170.785 29.3789 170.551 28.2917 170.551 27.0156C170.551 26.3125 170.674 25.5508 170.922 24.7305C171.169 23.9102 171.566 23.1549 172.113 22.4648C172.673 21.7617 173.396 21.1758 174.281 20.707C175.18 20.2383 176.267 20.0039 177.543 20.0039H186.703V24.8477H177.543C176.853 24.8477 176.319 25.0625 175.941 25.4922C175.564 25.9089 175.375 26.4297 175.375 27.0547C175.375 27.7188 175.59 28.2396 176.02 28.6172C176.462 28.9818 176.983 29.1641 177.582 29.1641H186.703C187.393 29.1641 187.927 28.9557 188.305 28.5391C188.682 28.1224 188.871 27.6016 188.871 26.9766V19.8867C188.871 19.2227 188.663 18.6953 188.246 18.3047C187.842 17.9141 187.328 17.7188 186.703 17.7188H175.551V12.8945H186.703C187.406 12.8945 188.161 13.0182 188.969 13.2656C189.789 13.513 190.544 13.9167 191.234 14.4766C191.938 15.0234 192.523 15.7461 192.992 16.6445C193.461 17.5299 193.695 18.6107 193.695 19.8867V27.0156ZM216.508 17.9727H205.082C204.392 17.9727 203.871 18.1484 203.52 18.5C203.168 18.8385 202.992 19.3398 202.992 20.0039V34.0078H197.914V20.0039C197.914 19.1315 198.025 18.3503 198.246 17.6602C198.467 16.9701 198.76 16.3646 199.125 15.8438C199.503 15.3099 199.932 14.8607 200.414 14.4961C200.896 14.1185 201.397 13.8125 201.918 13.5781C202.452 13.3438 202.986 13.1745 203.52 13.0703C204.066 12.9531 204.574 12.8945 205.043 12.8945H216.508V17.9727ZM240.023 27.0156C240.023 27.7188 239.9 28.4805 239.652 29.3008C239.405 30.1081 239.001 30.8633 238.441 31.5664C237.895 32.2565 237.172 32.8359 236.273 33.3047C235.388 33.7734 234.307 34.0078 233.031 34.0078H223.871C223.168 34.0078 222.406 33.8841 221.586 33.6367C220.779 33.3893 220.023 32.9922 219.32 32.4453C218.63 31.8854 218.051 31.1628 217.582 30.2773C217.113 29.3789 216.879 28.2917 216.879 27.0156C216.879 26.3125 217.003 25.5508 217.25 24.7305C217.497 23.9102 217.895 23.1549 218.441 22.4648C219.001 21.7617 219.724 21.1758 220.609 20.707C221.508 20.2383 222.595 20.0039 223.871 20.0039H233.031V24.8477H223.871C223.181 24.8477 222.647 25.0625 222.27 25.4922C221.892 25.9089 221.703 26.4297 221.703 27.0547C221.703 27.7188 221.918 28.2396 222.348 28.6172C222.79 28.9818 223.311 29.1641 223.91 29.1641H233.031C233.721 29.1641 234.255 28.9557 234.633 28.5391C235.01 28.1224 235.199 27.6016 235.199 26.9766V19.8867C235.199 19.2227 234.991 18.6953 234.574 18.3047C234.171 17.9141 233.656 17.7188 233.031 17.7188H221.879V12.8945H233.031C233.734 12.8945 234.49 13.0182 235.297 13.2656C236.117 13.513 236.872 13.9167 237.562 14.4766C238.266 15.0234 238.852 15.7461 239.32 16.6445C239.789 17.5299 240.023 18.6107 240.023 19.8867V27.0156ZM267.328 36.0391C267.328 36.9115 267.217 37.6927 266.996 38.3828C266.775 39.0859 266.482 39.6979 266.117 40.2188C265.753 40.7526 265.329 41.2018 264.848 41.5664C264.366 41.944 263.858 42.25 263.324 42.4844C262.803 42.7188 262.27 42.888 261.723 42.9922C261.189 43.1094 260.681 43.168 260.199 43.168H251.039V38.0898H260.199C260.889 38.0898 261.404 37.9141 261.742 37.5625C262.081 37.2109 262.25 36.7031 262.25 36.0391V20.0039C262.25 19.3398 262.081 18.8385 261.742 18.5C261.404 18.1484 260.889 17.9727 260.199 17.9727H251.039C250.414 17.9727 249.919 18.168 249.555 18.5586C249.19 18.9362 249.008 19.418 249.008 20.0039V26.8789C249.008 27.543 249.184 28.0508 249.535 28.4023C249.887 28.7539 250.401 28.9297 251.078 28.9297H260.199V34.0078H251.039C250.557 34.0078 250.049 33.9557 249.516 33.8516C248.982 33.7344 248.448 33.5586 247.914 33.3242C247.393 33.0898 246.892 32.7904 246.41 32.4258C245.928 32.0482 245.505 31.599 245.141 31.0781C244.776 30.5443 244.483 29.9323 244.262 29.2422C244.04 28.5391 243.93 27.7513 243.93 26.8789V20.0039C243.93 19.5221 243.982 19.0143 244.086 18.4805C244.203 17.9466 244.379 17.4193 244.613 16.8984C244.848 16.3646 245.147 15.8568 245.512 15.375C245.889 14.8932 246.339 14.4701 246.859 14.1055C247.393 13.7409 248.005 13.4479 248.695 13.2266C249.385 13.0052 250.167 12.8945 251.039 12.8945H260.199C260.681 12.8945 261.189 12.9531 261.723 13.0703C262.27 13.1745 262.803 13.3438 263.324 13.5781C263.858 13.8125 264.366 14.1185 264.848 14.4961C265.329 14.8607 265.753 15.3099 266.117 15.8438C266.482 16.3646 266.775 16.9701 266.996 17.6602C267.217 18.3503 267.328 19.1315 267.328 20.0039V36.0391ZM294.691 19.8867C294.691 20.5898 294.568 21.3516 294.32 22.1719C294.073 22.9792 293.669 23.7344 293.109 24.4375C292.562 25.1276 291.84 25.707 290.941 26.1758C290.056 26.6445 288.975 26.8789 287.699 26.8789H278.539V22.0547H287.699C288.389 22.0547 288.923 21.8464 289.301 21.4297C289.678 21 289.867 20.4727 289.867 19.8477C289.867 19.1836 289.652 18.6628 289.223 18.2852C288.806 17.9076 288.298 17.7188 287.699 17.7188H278.539C277.849 17.7188 277.315 17.9336 276.938 18.3633C276.56 18.7799 276.371 19.3008 276.371 19.9258V27.0156C276.371 27.6927 276.579 28.2201 276.996 28.5977C277.426 28.9753 277.953 29.1641 278.578 29.1641H287.699V34.0078H278.539C277.836 34.0078 277.074 33.8841 276.254 33.6367C275.447 33.3893 274.691 32.9922 273.988 32.4453C273.298 31.8854 272.719 31.1628 272.25 30.2773C271.781 29.3789 271.547 28.2917 271.547 27.0156V19.8867C271.547 19.1836 271.671 18.4284 271.918 17.6211C272.165 16.8008 272.562 16.0456 273.109 15.3555C273.669 14.6523 274.392 14.0664 275.277 13.5977C276.176 13.1289 277.263 12.8945 278.539 12.8945H287.699C288.402 12.8945 289.158 13.0182 289.965 13.2656C290.785 13.513 291.54 13.9167 292.23 14.4766C292.934 15.0234 293.52 15.7461 293.988 16.6445C294.457 17.5299 294.691 18.6107 294.691 19.8867Z"/>
</mask>
<path d="M33.2656 33.2852L29.023 29.0425L33.2656 33.2852ZM32.4648 33.8125L34.7725 39.351L32.4648 33.8125ZM11.6055 33.8516L10.319 39.712C10.3735 39.724 10.4281 39.7352 10.4828 39.7456L11.6055 33.8516ZM10.0039 33.3242L7.54172 38.7957C7.55843 38.8033 7.57518 38.8107 7.59197 38.8181L10.0039 33.3242ZM8.5 32.4258L4.79871 37.1481C4.82541 37.169 4.85229 37.1897 4.87934 37.2102L8.5 32.4258ZM7.21094 31.0781L2.25613 34.4619C2.28786 34.5084 2.32025 34.5544 2.35327 34.5999L7.21094 31.0781ZM6.33203 29.2422L0.608936 31.0439C0.612176 31.0542 0.615444 31.0645 0.618739 31.0748L6.33203 29.2422ZM6.15625 11.625L0.289436 10.3678C0.281728 10.4038 0.274351 10.4398 0.267307 10.4759L6.15625 11.625ZM6.68359 10.0234L12.1551 12.4856C12.1626 12.4689 12.1701 12.4522 12.1775 12.4354L6.68359 10.0234ZM8.94922 7.23047L12.39 12.1459C12.398 12.1402 12.406 12.1346 12.414 12.129L8.94922 7.23047ZM33.7734 6H39.7734C39.7734 2.68629 37.0871 0 33.7734 0V6ZM33.7734 11.0781V17.0781C37.0871 17.0781 39.7734 14.3918 39.7734 11.0781H33.7734ZM11.6055 28.4023L7.2864 32.5672C7.33688 32.6195 7.38831 32.6709 7.44066 32.7214L11.6055 28.4023ZM28.9297 28.9297V34.9297C32.2434 34.9297 34.9297 32.2434 34.9297 28.9297H28.9297ZM28.9297 22.5625H34.9297C34.9297 19.2488 32.2434 16.5625 28.9297 16.5625V22.5625ZM15.4141 22.5625H9.41406C9.41406 25.8762 12.1004 28.5625 15.4141 28.5625V22.5625ZM15.4141 17.4453V11.4453C12.1004 11.4453 9.41406 14.1316 9.41406 17.4453H15.4141ZM32.4648 17.6602L29.9649 23.1145C30.0285 23.1437 30.0926 23.1717 30.1572 23.1986L32.4648 17.6602ZM33.2656 18.207L28.9035 22.3268C28.9428 22.3683 28.9826 22.4093 29.023 22.4497L33.2656 18.207ZM33.8125 19.0273L28.274 21.335C28.2858 21.3633 28.2978 21.3916 28.3101 21.4197L33.8125 19.0273ZM34.0078 31.4492H28.0078C28.0078 31.0832 28.0768 30.6306 28.274 30.1572L33.8125 32.4648L39.351 34.7725C39.8087 33.6741 40.0078 32.5444 40.0078 31.4492H34.0078ZM33.8125 32.4648L28.274 30.1572C28.4387 29.7621 28.6912 29.3743 29.023 29.0425L33.2656 33.2852L37.5083 37.5278C38.3088 36.7273 38.9259 35.7926 39.351 34.7725L33.8125 32.4648ZM33.2656 33.2852L29.023 29.0425C29.3996 28.6659 29.8056 28.4205 30.1572 28.274L32.4648 33.8125L34.7725 39.351C35.749 38.9441 36.689 38.3471 37.5083 37.5278L33.2656 33.2852ZM32.4648 33.8125L30.1572 28.274C30.6306 28.0768 31.0832 28.0078 31.4492 28.0078V34.0078V40.0078C32.5444 40.0078 33.6741 39.8087 34.7725 39.351L32.4648 33.8125ZM31.4492 34.0078V28.0078H13.1289V34.0078V40.0078H31.4492V34.0078ZM13.1289 34.0078V28.0078C13.0991 28.0078 12.9716 28.0039 12.7281 27.9575L11.6055 33.8516L10.4828 39.7456C11.3331 39.9076 12.2212 40.0078 13.1289 40.0078V34.0078ZM11.6055 33.8516L12.8919 27.9911C12.7691 27.9641 12.6115 27.9162 12.4158 27.8304L10.0039 33.3242L7.59197 38.8181C8.46405 39.2009 9.37411 39.5046 10.319 39.712L11.6055 33.8516ZM10.0039 33.3242L12.4661 27.8527C12.379 27.8135 12.264 27.7498 12.1207 27.6413L8.5 32.4258L4.87934 37.2102C5.69959 37.8309 6.58718 38.3662 7.54172 38.7957L10.0039 33.3242ZM8.5 32.4258L12.2013 27.7034C12.1808 27.6874 12.1352 27.6482 12.0686 27.5563L7.21094 31.0781L2.35327 34.5999C3.04187 35.5497 3.85562 36.4089 4.79871 37.1481L8.5 32.4258ZM7.21094 31.0781L12.1657 27.6944C12.1642 27.6921 12.111 27.6145 12.0453 27.4096L6.33203 29.2422L0.618739 31.0748C0.995731 32.2501 1.52849 33.3964 2.25613 34.4619L7.21094 31.0781ZM6.33203 29.2422L12.0551 27.4405C12.0474 27.4158 12 27.249 12 26.8789H6H0C0 28.2536 0.173988 29.6623 0.608936 31.0439L6.33203 29.2422ZM6 26.8789H12V13.1289H6H0V26.8789H6ZM6 13.1289H12C12 13.1014 12.0034 12.9881 12.0452 12.7741L6.15625 11.625L0.267307 10.4759C0.100727 11.3297 0 12.2189 0 13.1289H6ZM6.15625 11.625L12.0231 12.8822C12.0496 12.7585 12.091 12.6281 12.1551 12.4856L6.68359 10.0234L1.21206 7.56125C0.807426 8.46045 0.497314 9.39773 0.289436 10.3678L6.15625 11.625ZM6.68359 10.0234L12.1775 12.4354C12.1999 12.3843 12.241 12.307 12.3239 12.2013L7.60156 8.5L2.87923 4.79871C2.2069 5.65651 1.63607 6.59483 1.18973 7.6115L6.68359 10.0234ZM7.60156 8.5L12.3239 12.2013C12.3254 12.1993 12.3286 12.1955 12.3358 12.1886C12.3433 12.1816 12.3598 12.167 12.39 12.1459L8.94922 7.23047L5.50844 2.31508C4.52175 3.00577 3.63574 3.8335 2.87923 4.79871L7.60156 8.5ZM8.94922 7.23047L12.414 12.129C12.3976 12.1406 12.4476 12.0999 12.6177 12.0453L10.7852 6.33203L8.95259 0.61874C7.74254 1.00687 6.56853 1.56517 5.48443 2.33197L8.94922 7.23047ZM10.7852 6.33203L12.6177 12.0453C12.6092 12.0481 12.756 12 13.1289 12V6V0C11.757 0 10.3414 0.173286 8.95259 0.61874L10.7852 6.33203ZM13.1289 6V12H33.7734V6V0H13.1289V6ZM33.7734 6H27.7734V11.0781H33.7734H39.7734V6H33.7734ZM33.7734 11.0781V5.07812H13.1289V11.0781V17.0781H33.7734V11.0781ZM13.1289 11.0781V5.07812C11.425 5.07812 9.17731 5.54834 7.36283 7.36283L11.6055 11.6055L15.8481 15.8481C14.7367 16.9595 13.5047 17.0781 13.1289 17.0781V11.0781ZM11.6055 11.6055L7.36283 7.36283C5.50824 9.21741 5.07812 11.5152 5.07812 13.168H11.0781H17.0781C17.0781 13.4405 16.9996 14.6966 15.8481 15.8481L11.6055 11.6055ZM11.0781 13.168H5.07812V26.8789H11.0781H17.0781V13.168H11.0781ZM11.0781 26.8789H5.07812C5.07812 28.6221 5.57382 30.7911 7.2864 32.5672L11.6055 28.4023L15.9245 24.2375C16.934 25.2844 17.0781 26.4378 17.0781 26.8789H11.0781ZM11.6055 28.4023L7.44066 32.7214C9.21667 34.434 11.3857 34.9297 13.1289 34.9297V28.9297V22.9297C13.57 22.9297 14.7234 23.0738 15.7703 24.0833L11.6055 28.4023ZM13.1289 28.9297V34.9297H28.9297V28.9297V22.9297H13.1289V28.9297ZM28.9297 28.9297H34.9297V22.5625H28.9297H22.9297V28.9297H28.9297ZM28.9297 22.5625V16.5625H15.4141V22.5625V28.5625H28.9297V22.5625ZM15.4141 22.5625H21.4141V17.4453H15.4141H9.41406V22.5625H15.4141ZM15.4141 17.4453V23.4453H31.4492V17.4453V11.4453H15.4141V17.4453ZM31.4492 17.4453V23.4453C31.0043 23.4453 30.4839 23.3524 29.9649 23.1145L32.4648 17.6602L34.9648 12.2058C33.8208 11.6815 32.6233 11.4453 31.4492 11.4453V17.4453ZM32.4648 17.6602L30.1572 23.1986C29.7327 23.0218 29.2888 22.7347 28.9035 22.3268L33.2656 18.207L37.6277 14.0873C36.7998 13.2106 35.822 12.559 34.7725 12.1217L32.4648 17.6602ZM33.2656 18.207L29.023 22.4497C28.6912 22.1179 28.4387 21.7301 28.274 21.335L33.8125 19.0273L39.351 16.7197C38.9259 15.6996 38.3088 14.7649 37.5083 13.9644L33.2656 18.207ZM33.8125 19.0273L28.3101 21.4197C28.0876 20.9079 28.0078 20.4117 28.0078 20.0039H34.0078H40.0078C40.0078 18.893 39.7979 17.7457 39.3149 16.635L33.8125 19.0273ZM34.0078 20.0039H28.0078V31.4492H34.0078H40.0078V20.0039H34.0078ZM60.1602 29.3008L65.8968 31.0588C65.8994 31.0503 65.902 31.0418 65.9046 31.0332L60.1602 29.3008ZM58.9492 31.5664L54.2555 27.8288L54.2467 27.8399L58.9492 31.5664ZM56.7812 33.3047L54.0059 27.9852C53.9952 27.9907 53.9846 27.9963 53.9739 28.002L56.7812 33.3047ZM42.0938 33.6367L40.3357 39.3734C40.3443 39.376 40.3528 39.3786 40.3613 39.3812L42.0938 33.6367ZM39.8281 32.4453L36.0479 37.1047C36.0798 37.1306 36.112 37.1562 36.1445 37.1814L39.8281 32.4453ZM38.0898 30.2773L32.7703 33.0527C32.7759 33.0634 32.7815 33.074 32.7871 33.0847L38.0898 30.2773ZM37.7578 24.7305L32.0134 22.998L37.7578 24.7305ZM38.9492 22.4648L34.2555 18.7273L34.2467 18.7384L38.9492 22.4648ZM41.1172 20.707L38.3418 15.3875C38.3311 15.3931 38.3205 15.3987 38.3099 15.4043L41.1172 20.707ZM53.5391 20.0039H59.5391C59.5391 16.6902 56.8528 14.0039 53.5391 14.0039V20.0039ZM53.5391 24.8477V30.8477C56.8528 30.8477 59.5391 28.1614 59.5391 24.8477H53.5391ZM42.7773 25.4922L47.2233 29.5213C47.2438 29.4986 47.2642 29.4758 47.2843 29.4529L42.7773 25.4922ZM42.8555 28.6172L38.8948 33.1242C38.9429 33.1665 38.9917 33.208 39.0412 33.2488L42.8555 28.6172ZM55.082 18.3047L50.9095 22.6163C50.9323 22.6384 50.9552 22.6602 50.9784 22.6819L55.082 18.3047ZM42.3867 17.7188H36.3867C36.3867 21.0325 39.073 23.7188 42.3867 23.7188V17.7188ZM42.3867 12.8945V6.89453C39.073 6.89453 36.3867 9.58082 36.3867 12.8945H42.3867ZM55.8047 13.2656L54.0467 19.0023C54.0552 19.0049 54.0637 19.0075 54.0722 19.0101L55.8047 13.2656ZM58.0703 14.4766L54.2901 19.1359C54.322 19.1618 54.3542 19.1874 54.3867 19.2127L58.0703 14.4766ZM59.8281 16.6445L54.5086 19.4199C54.5142 19.4306 54.5198 19.4412 54.5254 19.4519L59.8281 16.6445ZM60.5312 27.0156H54.5312C54.5312 27.0155 54.5313 27.0264 54.5293 27.0491C54.5274 27.0719 54.5236 27.1061 54.5161 27.1525C54.5008 27.2462 54.4714 27.3837 54.4157 27.5683L60.1602 29.3008L65.9046 31.0332C66.2859 29.7691 66.5312 28.4173 66.5312 27.0156H60.5312ZM60.1602 29.3008L54.4235 27.5428C54.4105 27.5852 54.3773 27.676 54.2555 27.8288L58.9492 31.5664L63.6429 35.304C64.641 34.0506 65.415 32.6309 65.8968 31.0588L60.1602 29.3008ZM58.9492 31.5664L54.2467 27.8399C54.267 27.8144 54.2721 27.8148 54.2438 27.8375C54.2138 27.8615 54.1411 27.9146 54.0059 27.9852L56.7812 33.3047L59.5566 38.6242C61.09 37.8242 62.5082 36.7359 63.6517 35.2929L58.9492 31.5664ZM56.7812 33.3047L53.9739 28.002C54.158 27.9045 54.0976 28.0078 53.5391 28.0078V34.0078V40.0078C55.5326 40.0078 57.6336 39.6424 59.5886 38.6074L56.7812 33.3047ZM53.5391 34.0078V28.0078H44.3789V34.0078V40.0078H53.5391V34.0078ZM44.3789 34.0078V28.0078C44.379 28.0078 44.3682 28.0078 44.3454 28.0059C44.3227 28.004 44.2884 28.0002 44.242 27.9926C44.1483 27.9774 44.0108 27.948 43.8262 27.8923L42.0938 33.6367L40.3613 39.3812C41.6254 39.7624 42.9772 40.0078 44.3789 40.0078V34.0078ZM42.0938 33.6367L43.8518 27.9C43.7796 27.8779 43.6712 27.8332 43.5118 27.7092L39.8281 32.4453L36.1445 37.1814C37.3913 38.1512 38.7934 38.9007 40.3357 39.3734L42.0938 33.6367ZM39.8281 32.4453L43.6084 27.7859C43.6076 27.7853 43.6033 27.7818 43.5955 27.7739C43.5877 27.766 43.5747 27.752 43.5571 27.7301C43.5222 27.6866 43.4642 27.6054 43.3926 27.47L38.0898 30.2773L32.7871 33.0847C33.5856 34.5929 34.6558 35.9752 36.0479 37.1047L39.8281 32.4453ZM38.0898 30.2773L43.4094 27.5019C43.4886 27.6539 43.3867 27.5701 43.3867 27.0156H37.3867H31.3867C31.3867 29.0132 31.7535 31.1039 32.7703 33.0527L38.0898 30.2773ZM37.3867 27.0156H43.3867C43.3867 27.0158 43.3867 27.0049 43.3886 26.9822C43.3906 26.9594 43.3944 26.9251 43.4019 26.8788C43.4171 26.785 43.4466 26.6476 43.5023 26.4629L37.7578 24.7305L32.0134 22.998C31.6321 24.2622 31.3867 25.6139 31.3867 27.0156H37.3867ZM37.7578 24.7305L43.5023 26.4629C43.5251 26.3872 43.5615 26.3051 43.6517 26.1913L38.9492 22.4648L34.2467 18.7384C33.2432 20.0047 32.4853 21.4331 32.0134 22.998L37.7578 24.7305ZM38.9492 22.4648L43.6429 26.2024C43.6437 26.2014 43.6467 26.1978 43.653 26.1914C43.6594 26.1849 43.6711 26.1738 43.6899 26.1586C43.7269 26.1286 43.7996 26.0759 43.9245 26.0098L41.1172 20.707L38.3099 15.4043C36.7786 16.215 35.3858 17.3078 34.2555 18.7273L38.9492 22.4648ZM41.1172 20.707L43.8926 26.0265C43.7406 26.1058 43.8244 26.0039 44.3789 26.0039V20.0039V14.0039C42.3813 14.0039 40.2906 14.3707 38.3418 15.3875L41.1172 20.707ZM44.3789 20.0039V26.0039H53.5391V20.0039V14.0039H44.3789V20.0039ZM53.5391 20.0039H47.5391V24.8477H53.5391H59.5391V20.0039H53.5391ZM53.5391 24.8477V18.8477H44.3789V24.8477V30.8477H53.5391V24.8477ZM44.3789 24.8477V18.8477C42.3518 18.8477 40.0208 19.5396 38.2704 21.5315L42.7773 25.4922L47.2843 29.4529C46.8496 29.9475 46.2994 30.3341 45.701 30.575C45.1293 30.805 44.652 30.8477 44.3789 30.8477V24.8477ZM42.7773 25.4922L38.3314 21.4631C36.8395 23.1093 36.2109 25.1195 36.2109 27.0547H42.2109H48.2109C48.2109 27.351 48.165 27.7666 47.9934 28.2401C47.8181 28.7237 47.5498 29.161 47.2233 29.5213L42.7773 25.4922ZM42.2109 27.0547H36.2109C36.2109 29.1378 36.955 31.4195 38.8948 33.1242L42.8555 28.6172L46.8162 24.1102C47.2823 24.5199 47.6693 25.0508 47.9187 25.6554C48.1591 26.2381 48.2109 26.7397 48.2109 27.0547H42.2109ZM42.8555 28.6172L39.0412 33.2488C40.6087 34.5396 42.4943 35.1641 44.418 35.1641V29.1641V23.1641C44.7358 23.1641 45.1314 23.2141 45.5602 23.3642C45.9925 23.5155 46.3676 23.7368 46.6697 23.9856L42.8555 28.6172ZM44.418 29.1641V35.1641H53.5391V29.1641V23.1641H44.418V29.1641ZM53.5391 29.1641V35.1641C55.5073 35.1641 57.8196 34.5179 59.5865 32.5682L55.1406 28.5391L50.6947 24.5099C51.142 24.0163 51.6943 23.6452 52.2758 23.4183C52.8302 23.202 53.2863 23.1641 53.5391 23.1641V29.1641ZM55.1406 28.5391L59.5865 32.5682C61.0784 30.922 61.707 28.9117 61.707 26.9766H55.707H49.707C49.707 26.6803 49.753 26.2646 49.9246 25.7911C50.0999 25.3076 50.3682 24.8703 50.6947 24.5099L55.1406 28.5391ZM55.707 26.9766H61.707V19.8867H55.707H49.707V26.9766H55.707ZM55.707 19.8867H61.707C61.707 17.8589 61.0117 15.6393 59.1857 13.9275L55.082 18.3047L50.9784 22.6819C50.5449 22.2756 50.1944 21.7647 49.9705 21.1977C49.7542 20.6503 49.707 20.1824 49.707 19.8867H55.707ZM55.082 18.3047L59.2546 13.9931C57.6016 12.3935 55.5301 11.7188 53.5391 11.7188V17.7188V23.7188C53.2218 23.7188 52.7728 23.6678 52.2635 23.4744C51.7425 23.2766 51.2807 22.9755 50.9095 22.6163L55.082 18.3047ZM53.5391 17.7188V11.7188H42.3867V17.7188V23.7188H53.5391V17.7188ZM42.3867 17.7188H48.3867V12.8945H42.3867H36.3867V17.7188H42.3867ZM42.3867 12.8945V18.8945H53.5391V12.8945V6.89453H42.3867V12.8945ZM53.5391 12.8945V18.8945C53.5387 18.8945 53.5781 18.8945 53.663 18.9084C53.7484 18.9224 53.8752 18.9498 54.0467 19.0023L55.8047 13.2656L57.5627 7.52895C56.2963 7.14085 54.9435 6.89453 53.5391 6.89453V12.8945ZM55.8047 13.2656L54.0722 19.0101C54.1181 19.0239 54.1826 19.0487 54.2901 19.1359L58.0703 14.4766L61.8506 9.81719C60.5778 8.78459 59.1319 8.00213 57.5371 7.52118L55.8047 13.2656ZM58.0703 14.4766L54.3867 19.2127C54.3615 19.1931 54.3589 19.1857 54.3766 19.2075C54.3956 19.231 54.4435 19.2951 54.5086 19.4199L59.8281 16.6445L65.1476 13.8691C64.3354 12.3124 63.2244 10.8842 61.754 9.74045L58.0703 14.4766ZM59.8281 16.6445L54.5254 19.4519C54.4279 19.2678 54.5312 19.3281 54.5312 19.8867H60.5312H66.5312C66.5312 17.8932 66.1658 15.7921 65.1309 13.8372L59.8281 16.6445ZM60.5312 19.8867H54.5312V27.0156H60.5312H66.5312V19.8867H60.5312ZM83.7148 34.0078V40.0078C87.0285 40.0078 89.7148 37.3215 89.7148 34.0078H83.7148ZM78.6367 34.0078H72.6367C72.6367 37.3215 75.323 40.0078 78.6367 40.0078V34.0078ZM78.1094 18.5L73.8667 22.7426C73.8934 22.7693 73.9203 22.7957 73.9475 22.8219L78.1094 18.5ZM69.9453 17.9727V11.9727C66.6316 11.9727 63.9453 14.6589 63.9453 17.9727H69.9453ZM69.9453 34.0078V40.0078C73.259 40.0078 75.9453 37.3215 75.9453 34.0078H69.9453ZM64.8672 34.0078H58.8672C58.8672 37.3215 61.5535 40.0078 64.8672 40.0078V34.0078ZM65.0625 14.4375L70.5649 16.8299C70.5771 16.8017 70.5892 16.7735 70.601 16.7452L65.0625 14.4375ZM65.6094 13.6367L69.7291 17.9988C69.7707 17.9596 69.8116 17.9198 69.852 17.8794L65.6094 13.6367ZM81.1562 14.457L77.5563 19.257C79.3744 20.6206 81.8068 20.8399 83.8395 19.8236C85.8722 18.8072 87.1562 16.7297 87.1562 14.457H81.1562ZM81.1562 12.8945V6.89453C77.8425 6.89453 75.1562 9.58082 75.1562 12.8945H81.1562ZM89.5547 13.0703L88.2682 18.9308C88.3139 18.9408 88.3597 18.9503 88.4056 18.9593L89.5547 13.0703ZM91.1367 13.5781L88.6745 19.0497C88.6912 19.0572 88.708 19.0646 88.7248 19.072L91.1367 13.5781ZM92.6602 14.4961L88.9589 19.2184C88.9856 19.2394 89.0125 19.2601 89.0395 19.2805L92.6602 14.4961ZM93.9297 15.8438L88.9749 19.2275C88.9879 19.2466 89.0011 19.2656 89.0143 19.2845L93.9297 15.8438ZM95.1406 34.0078V40.0078C98.4543 40.0078 101.141 37.3215 101.141 34.0078H95.1406ZM90.0625 34.0078H84.0625C84.0625 37.3215 86.7488 40.0078 90.0625 40.0078V34.0078ZM89.5547 18.5L85.1521 22.5764C85.2044 22.6329 85.2577 22.6883 85.312 22.7426L89.5547 18.5ZM83.4609 17.9727V11.9727C81.5928 11.9727 79.8312 12.8428 78.6959 14.3265C77.5606 15.8101 77.1812 17.7379 77.6696 19.5411L83.4609 17.9727ZM83.7148 34.0078V28.0078H78.6367V34.0078V40.0078H83.7148V34.0078ZM78.6367 34.0078H84.6367V20.0039H78.6367H72.6367V34.0078H78.6367ZM78.6367 20.0039H84.6367C84.6367 18.3159 84.1723 16.0088 82.2712 14.1781L78.1094 18.5L73.9475 22.8219C72.7495 21.6683 72.6367 20.3638 72.6367 20.0039H78.6367ZM78.1094 18.5L82.352 14.2574C80.4974 12.4028 78.1996 11.9727 76.5469 11.9727V17.9727V23.9727C76.2744 23.9727 75.0182 23.8941 73.8667 22.7426L78.1094 18.5ZM76.5469 17.9727V11.9727H69.9453V17.9727V23.9727H76.5469V17.9727ZM69.9453 17.9727H63.9453V34.0078H69.9453H75.9453V17.9727H69.9453ZM69.9453 34.0078V28.0078H64.8672V34.0078V40.0078H69.9453V34.0078ZM64.8672 34.0078H70.8672V15.4141H64.8672H58.8672V34.0078H64.8672ZM64.8672 15.4141H70.8672C70.8672 15.8218 70.7874 16.3181 70.5649 16.8299L65.0625 14.4375L59.5601 12.0451C59.0771 13.1559 58.8672 14.3032 58.8672 15.4141H64.8672ZM65.0625 14.4375L70.601 16.7452C70.4241 17.1696 70.137 17.6136 69.7291 17.9988L65.6094 13.6367L61.4896 9.27464C60.613 10.1026 59.9613 11.0804 59.524 12.1298L65.0625 14.4375ZM65.6094 13.6367L69.852 17.8794C69.5202 18.2111 69.1325 18.4637 68.7374 18.6283L66.4297 13.0898L64.122 7.55138C63.1019 7.97642 62.1673 8.59354 61.3667 9.39408L65.6094 13.6367ZM66.4297 13.0898L68.7374 18.6283C68.2905 18.8145 67.8353 18.8945 67.4258 18.8945V12.8945V6.89453C66.3131 6.89453 65.1939 7.10477 64.122 7.55138L66.4297 13.0898ZM67.4258 12.8945V18.8945H76.5859V12.8945V6.89453H67.4258V12.8945ZM76.5859 12.8945V18.8945C76.5856 18.8945 76.625 18.8945 76.7099 18.9084C76.7952 18.9224 76.9221 18.9498 77.0936 19.0023L78.8516 13.2656L80.6096 7.52895C79.3431 7.14085 77.9904 6.89453 76.5859 6.89453V12.8945ZM78.8516 13.2656L77.0936 19.0023C77.1864 19.0308 77.338 19.0934 77.5563 19.257L81.1562 14.457L84.7562 9.65703C83.5161 8.72693 82.1313 7.99529 80.6096 7.52895L78.8516 13.2656ZM81.1562 14.457H87.1562V12.8945H81.1562H75.1562V14.457H81.1562ZM81.1562 12.8945V18.8945H88.0312V12.8945V6.89453H81.1562V12.8945ZM88.0312 12.8945V18.8945C88.0272 18.8945 88.1015 18.8942 88.2682 18.9308L89.5547 13.0703L90.8411 7.20985C89.9402 7.01207 88.9989 6.89453 88.0312 6.89453V12.8945ZM89.5547 13.0703L88.4056 18.9593C88.4652 18.9709 88.5529 18.9949 88.6745 19.0497L91.1367 13.5781L93.5989 8.1066C92.6788 7.69256 91.7119 7.37808 90.7038 7.18137L89.5547 13.0703ZM91.1367 13.5781L88.7248 19.072C88.7758 19.0944 88.8531 19.1356 88.9589 19.2184L92.6602 14.4961L96.3615 9.77376C95.5036 9.10143 94.5653 8.5306 93.5487 8.08426L91.1367 13.5781ZM92.6602 14.4961L89.0395 19.2805C89.0075 19.2563 88.9847 19.2346 88.9715 19.2206C88.9587 19.207 88.9607 19.2068 88.9749 19.2275L93.9297 15.8438L98.8845 12.46C98.1796 11.4278 97.3152 10.4945 96.2808 9.71165L92.6602 14.4961ZM93.9297 15.8438L89.0143 19.2845C88.9893 19.2489 89.0325 19.2969 89.0953 19.4927L94.8086 17.6602L100.522 15.8276C100.142 14.6432 99.5992 13.4803 98.8451 12.403L93.9297 15.8438ZM94.8086 17.6602L89.0953 19.4927C89.0926 19.4842 89.1406 19.631 89.1406 20.0039H95.1406H101.141C101.141 18.632 100.967 17.2164 100.522 15.8276L94.8086 17.6602ZM95.1406 20.0039H89.1406V34.0078H95.1406H101.141V20.0039H95.1406ZM95.1406 34.0078V28.0078H90.0625V34.0078V40.0078H95.1406V34.0078ZM90.0625 34.0078H96.0625V20.0039H90.0625H84.0625V34.0078H90.0625ZM90.0625 20.0039H96.0625C96.0625 18.3758 95.6381 16.0982 93.7973 14.2574L89.5547 18.5L85.312 22.7426C84.1483 21.5789 84.0625 20.3039 84.0625 20.0039H90.0625ZM89.5547 18.5L93.9573 14.4236C92.072 12.3875 89.6448 11.9727 88.0312 11.9727V17.9727V23.9727C87.7979 23.9727 86.3863 23.9094 85.1521 22.5764L89.5547 18.5ZM88.0312 17.9727V11.9727H83.4609V17.9727V23.9727H88.0312V17.9727ZM83.4609 17.9727L77.6696 19.5411C77.6842 19.5952 77.7148 19.7389 77.7148 20.0039H83.7148H89.7148C89.7148 18.8105 89.5762 17.6001 89.2523 16.4042L83.4609 17.9727ZM83.7148 20.0039H77.7148V34.0078H83.7148H89.7148V20.0039H83.7148ZM122.172 22.1719L127.909 23.9299C127.911 23.9214 127.914 23.9129 127.916 23.9043L122.172 22.1719ZM120.961 24.4375L116.267 20.6999L116.258 20.711L120.961 24.4375ZM118.793 26.1758L116.018 20.8563C116.007 20.8618 115.996 20.8674 115.986 20.8731L118.793 26.1758ZM106.391 26.8789H100.391C100.391 30.1926 103.077 32.8789 106.391 32.8789V26.8789ZM106.391 22.0547V16.0547C103.077 16.0547 100.391 18.741 100.391 22.0547H106.391ZM117.152 21.4297L121.598 25.4588C121.619 25.4361 121.639 25.4133 121.659 25.3904L117.152 21.4297ZM117.074 18.2852L113.045 22.7311C113.068 22.7516 113.091 22.772 113.114 22.7921L117.074 18.2852ZM104.789 18.3633L109.235 22.3924C109.256 22.3697 109.276 22.3469 109.296 22.324L104.789 18.3633ZM104.848 28.5977L100.819 33.0436C100.841 33.0641 100.864 33.0845 100.887 33.1046L104.848 28.5977ZM115.551 29.1641H121.551C121.551 25.8504 118.864 23.1641 115.551 23.1641V29.1641ZM115.551 34.0078V40.0078C118.864 40.0078 121.551 37.3215 121.551 34.0078H115.551ZM104.105 33.6367L102.347 39.3734C102.356 39.376 102.364 39.3786 102.373 39.3812L104.105 33.6367ZM101.84 32.4453L98.0596 37.1047C98.0915 37.1306 98.1237 37.1562 98.1562 37.1814L101.84 32.4453ZM100.102 30.2773L94.7821 33.0527C94.7876 33.0634 94.7932 33.074 94.7988 33.0847L100.102 30.2773ZM99.7695 17.6211L105.506 19.3791C105.509 19.3706 105.511 19.3621 105.514 19.3535L99.7695 17.6211ZM100.961 15.3555L96.2672 11.6179L96.2585 11.629L100.961 15.3555ZM103.129 13.5977L100.354 8.27815C100.343 8.28371 100.332 8.2893 100.322 8.29493L103.129 13.5977ZM117.816 13.2656L116.058 19.0023C116.067 19.0049 116.075 19.0075 116.084 19.0101L117.816 13.2656ZM120.082 14.4766L116.302 19.1359C116.334 19.1618 116.366 19.1874 116.398 19.2127L120.082 14.4766ZM121.84 16.6445L116.52 19.4199C116.526 19.4306 116.531 19.4412 116.537 19.4519L121.84 16.6445ZM122.543 19.8867H116.543C116.543 19.8866 116.543 19.8974 116.541 19.9202C116.539 19.943 116.535 19.9772 116.528 20.0236C116.513 20.1173 116.483 20.2548 116.427 20.4394L122.172 22.1719L127.916 23.9043C128.298 22.6402 128.543 21.2884 128.543 19.8867H122.543ZM122.172 22.1719L116.435 20.4139C116.422 20.4563 116.389 20.5471 116.267 20.6999L120.961 24.4375L125.655 28.1751C126.653 26.9217 127.427 25.502 127.909 23.9299L122.172 22.1719ZM120.961 24.4375L116.258 20.711C116.279 20.6855 116.284 20.6859 116.255 20.7086C116.226 20.7326 116.153 20.7857 116.018 20.8563L118.793 26.1758L121.568 31.4953C123.102 30.6953 124.52 29.607 125.663 28.164L120.961 24.4375ZM118.793 26.1758L115.986 20.8731C116.17 20.7756 116.109 20.8789 115.551 20.8789V26.8789V32.8789C117.544 32.8789 119.645 32.5135 121.6 31.4785L118.793 26.1758ZM115.551 26.8789V20.8789H106.391V26.8789V32.8789H115.551V26.8789ZM106.391 26.8789H112.391V22.0547H106.391H100.391V26.8789H106.391ZM106.391 22.0547V28.0547H115.551V22.0547V16.0547H106.391V22.0547ZM115.551 22.0547V28.0547C117.519 28.0547 119.831 27.4086 121.598 25.4588L117.152 21.4297L112.706 17.4006C113.154 16.9069 113.706 16.5359 114.287 16.309C114.842 16.0926 115.298 16.0547 115.551 16.0547V22.0547ZM117.152 21.4297L121.659 25.3904C123.091 23.7609 123.719 21.7847 123.719 19.8477H117.719H111.719C111.719 19.5501 111.765 19.1454 111.928 18.6895C112.094 18.2255 112.346 17.8101 112.645 17.469L117.152 21.4297ZM117.719 19.8477H123.719C123.719 17.7646 122.975 15.4828 121.035 13.7782L117.074 18.2852L113.114 22.7921C112.647 22.3825 112.26 21.8516 112.011 21.247C111.771 20.6643 111.719 20.1627 111.719 19.8477H117.719ZM117.074 18.2852L121.103 13.8392C119.507 12.3925 117.533 11.7188 115.551 11.7188V17.7188V23.7188C115.212 23.7188 114.772 23.6635 114.29 23.4842C113.802 23.3027 113.38 23.0348 113.045 22.7311L117.074 18.2852ZM115.551 17.7188V11.7188H106.391V17.7188V23.7188H115.551V17.7188ZM106.391 17.7188V11.7188C104.364 11.7188 102.033 12.4107 100.282 14.4026L104.789 18.3633L109.296 22.324C108.861 22.8186 108.311 23.2052 107.713 23.446C107.141 23.6761 106.664 23.7188 106.391 23.7188V17.7188ZM104.789 18.3633L100.343 14.3342C98.8513 15.9804 98.2227 17.9906 98.2227 19.9258H104.223H110.223C110.223 20.2221 110.177 20.6377 110.005 21.1112C109.83 21.5947 109.562 22.0321 109.235 22.3924L104.789 18.3633ZM104.223 19.9258H98.2227V27.0156H104.223H110.223V19.9258H104.223ZM104.223 27.0156H98.2227C98.2227 29.0109 98.8932 31.2987 100.819 33.0436L104.848 28.5977L108.877 24.1517C109.356 24.5865 109.728 25.1292 109.959 25.7144C110.181 26.2745 110.223 26.7427 110.223 27.0156H104.223ZM104.848 28.5977L100.887 33.1046C102.516 34.5366 104.493 35.1641 106.43 35.1641V29.1641V23.1641C106.727 23.1641 107.132 23.2103 107.588 23.3736C108.052 23.5397 108.467 23.7909 108.808 24.0907L104.848 28.5977ZM106.43 29.1641V35.1641H115.551V29.1641V23.1641H106.43V29.1641ZM115.551 29.1641H109.551V34.0078H115.551H121.551V29.1641H115.551ZM115.551 34.0078V28.0078H106.391V34.0078V40.0078H115.551V34.0078ZM106.391 34.0078V28.0078C106.391 28.0078 106.38 28.0078 106.357 28.0059C106.334 28.004 106.3 28.0002 106.254 27.9926C106.16 27.9774 106.023 27.948 105.838 27.8923L104.105 33.6367L102.373 39.3812C103.637 39.7624 104.989 40.0078 106.391 40.0078V34.0078ZM104.105 33.6367L105.863 27.9C105.791 27.8779 105.683 27.8332 105.523 27.7092L101.84 32.4453L98.1562 37.1814C99.4031 38.1512 100.805 38.9007 102.347 39.3734L104.105 33.6367ZM101.84 32.4453L105.62 27.7859C105.619 27.7853 105.615 27.7818 105.607 27.7739C105.599 27.766 105.586 27.752 105.569 27.7301C105.534 27.6866 105.476 27.6054 105.404 27.47L100.102 30.2773L94.7988 33.0847C95.5973 34.5929 96.6675 35.9752 98.0596 37.1047L101.84 32.4453ZM100.102 30.2773L105.421 27.5019C105.5 27.6539 105.398 27.5701 105.398 27.0156H99.3984H93.3984C93.3984 29.0132 93.7653 31.1039 94.7821 33.0527L100.102 30.2773ZM99.3984 27.0156H105.398V19.8867H99.3984H93.3984V27.0156H99.3984ZM99.3984 19.8867H105.398C105.398 19.8871 105.398 19.8476 105.412 19.7628C105.426 19.6774 105.454 19.5506 105.506 19.3791L99.7695 17.6211L94.0329 15.8631C93.6448 17.1295 93.3984 18.4822 93.3984 19.8867H99.3984ZM99.7695 17.6211L105.514 19.3535C105.537 19.2778 105.573 19.1958 105.663 19.082L100.961 15.3555L96.2585 11.629C95.2549 12.8954 94.497 14.3237 94.0251 15.8886L99.7695 17.6211ZM100.961 15.3555L105.655 19.093C105.655 19.092 105.658 19.0884 105.665 19.082C105.671 19.0755 105.683 19.0645 105.702 19.0492C105.739 19.0192 105.811 18.9665 105.936 18.9004L103.129 13.5977L100.322 8.29493C98.7903 9.10562 97.3976 10.1985 96.2673 11.6179L100.961 15.3555ZM103.129 13.5977L105.904 18.9172C105.752 18.9965 105.836 18.8945 106.391 18.8945V12.8945V6.89453C104.393 6.89453 102.302 7.26136 100.354 8.27815L103.129 13.5977ZM106.391 12.8945V18.8945H115.551V12.8945V6.89453H106.391V12.8945ZM115.551 12.8945V18.8945C115.55 18.8945 115.59 18.8945 115.675 18.9084C115.76 18.9224 115.887 18.9498 116.058 19.0023L117.816 13.2656L119.574 7.52895C118.308 7.14085 116.955 6.89453 115.551 6.89453V12.8945ZM117.816 13.2656L116.084 19.0101C116.13 19.0239 116.194 19.0487 116.302 19.1359L120.082 14.4766L123.862 9.81719C122.59 8.78459 121.144 8.00213 119.549 7.52118L117.816 13.2656ZM120.082 14.4766L116.398 19.2127C116.373 19.1931 116.371 19.1857 116.388 19.2075C116.407 19.231 116.455 19.2951 116.52 19.4199L121.84 16.6445L127.159 13.8691C126.347 12.3124 125.236 10.8842 123.766 9.74045L120.082 14.4766ZM121.84 16.6445L116.537 19.4519C116.44 19.2678 116.543 19.3281 116.543 19.8867H122.543H128.543C128.543 17.8932 128.178 15.7921 127.143 13.8372L121.84 16.6445ZM166.43 33.2852L162.187 29.0425L166.43 33.2852ZM165.629 33.8125L167.937 39.351L165.629 33.8125ZM144.77 33.8516L143.483 39.712C143.538 39.724 143.592 39.7352 143.647 39.7456L144.77 33.8516ZM143.168 33.3242L140.706 38.7957C140.722 38.8033 140.739 38.8107 140.756 38.8181L143.168 33.3242ZM141.664 32.4258L137.963 37.1481C137.989 37.169 138.016 37.1897 138.043 37.2102L141.664 32.4258ZM140.375 31.0781L135.42 34.4619C135.452 34.5084 135.484 34.5544 135.517 34.5999L140.375 31.0781ZM139.496 29.2422L133.773 31.0439C133.776 31.0542 133.78 31.0645 133.783 31.0748L139.496 29.2422ZM139.32 11.625L133.453 10.3678C133.446 10.4038 133.438 10.4398 133.431 10.4759L139.32 11.625ZM139.848 10.0234L145.319 12.4856C145.327 12.4689 145.334 12.4522 145.342 12.4354L139.848 10.0234ZM142.113 7.23047L145.554 12.1459C145.562 12.1402 145.57 12.1346 145.578 12.129L142.113 7.23047ZM166.938 6H172.938C172.938 2.68629 170.251 0 166.938 0V6ZM166.938 11.0781V17.0781C170.251 17.0781 172.938 14.3918 172.938 11.0781H166.938ZM144.77 28.4023L140.45 32.5672C140.501 32.6195 140.552 32.6709 140.605 32.7214L144.77 28.4023ZM162.094 28.9297V34.9297C165.407 34.9297 168.094 32.2434 168.094 28.9297H162.094ZM162.094 22.5625H168.094C168.094 19.2488 165.407 16.5625 162.094 16.5625V22.5625ZM148.578 22.5625H142.578C142.578 25.8762 145.264 28.5625 148.578 28.5625V22.5625ZM148.578 17.4453V11.4453C145.264 11.4453 142.578 14.1316 142.578 17.4453H148.578ZM165.629 17.6602L163.129 23.1145C163.193 23.1437 163.257 23.1717 163.321 23.1986L165.629 17.6602ZM166.43 18.207L162.068 22.3268C162.107 22.3683 162.147 22.4093 162.187 22.4497L166.43 18.207ZM166.977 19.0273L161.438 21.335C161.45 21.3633 161.462 21.3916 161.474 21.4197L166.977 19.0273ZM167.172 31.4492H161.172C161.172 31.0832 161.241 30.6306 161.438 30.1572L166.977 32.4648L172.515 34.7725C172.973 33.6741 173.172 32.5444 173.172 31.4492H167.172ZM166.977 32.4648L161.438 30.1572C161.603 29.7621 161.855 29.3743 162.187 29.0425L166.43 33.2852L170.672 37.5278C171.473 36.7273 172.09 35.7926 172.515 34.7725L166.977 32.4648ZM166.43 33.2852L162.187 29.0425C162.564 28.6659 162.97 28.4205 163.321 28.274L165.629 33.8125L167.937 39.351C168.913 38.9441 169.853 38.3471 170.672 37.5278L166.43 33.2852ZM165.629 33.8125L163.321 28.274C163.795 28.0768 164.247 28.0078 164.613 28.0078V34.0078V40.0078C165.708 40.0078 166.838 39.8087 167.937 39.351L165.629 33.8125ZM164.613 34.0078V28.0078H146.293V34.0078V40.0078H164.613V34.0078ZM146.293 34.0078V28.0078C146.263 28.0078 146.136 28.0039 145.892 27.9575L144.77 33.8516L143.647 39.7456C144.497 39.9076 145.385 40.0078 146.293 40.0078V34.0078ZM144.77 33.8516L146.056 27.9911C145.933 27.9641 145.776 27.9162 145.58 27.8304L143.168 33.3242L140.756 38.8181C141.628 39.2009 142.538 39.5046 143.483 39.712L144.77 33.8516ZM143.168 33.3242L145.63 27.8527C145.543 27.8135 145.428 27.7498 145.285 27.6413L141.664 32.4258L138.043 37.2102C138.864 37.8309 139.751 38.3662 140.706 38.7957L143.168 33.3242ZM141.664 32.4258L145.365 27.7034C145.345 27.6874 145.299 27.6482 145.233 27.5563L140.375 31.0781L135.517 34.5999C136.206 35.5497 137.02 36.4089 137.963 37.1481L141.664 32.4258ZM140.375 31.0781L145.33 27.6944C145.328 27.6921 145.275 27.6145 145.209 27.4096L139.496 29.2422L133.783 31.0748C134.16 32.2501 134.693 33.3964 135.42 34.4619L140.375 31.0781ZM139.496 29.2422L145.219 27.4405C145.211 27.4158 145.164 27.249 145.164 26.8789H139.164H133.164C133.164 28.2536 133.338 29.6623 133.773 31.0439L139.496 29.2422ZM139.164 26.8789H145.164V13.1289H139.164H133.164V26.8789H139.164ZM139.164 13.1289H145.164C145.164 13.1014 145.167 12.9881 145.209 12.7741L139.32 11.625L133.431 10.4759C133.265 11.3297 133.164 12.2189 133.164 13.1289H139.164ZM139.32 11.625L145.187 12.8822C145.214 12.7585 145.255 12.6281 145.319 12.4856L139.848 10.0234L134.376 7.56125C133.971 8.46045 133.661 9.39773 133.453 10.3678L139.32 11.625ZM139.848 10.0234L145.342 12.4354C145.364 12.3843 145.405 12.307 145.488 12.2013L140.766 8.5L136.043 4.79871C135.371 5.65651 134.8 6.59483 134.354 7.6115L139.848 10.0234ZM140.766 8.5L145.488 12.2013C145.49 12.1993 145.493 12.1955 145.5 12.1886C145.507 12.1816 145.524 12.167 145.554 12.1459L142.113 7.23047L138.673 2.31508C137.686 3.00577 136.8 3.8335 136.043 4.79871L140.766 8.5ZM142.113 7.23047L145.578 12.129C145.562 12.1406 145.612 12.0999 145.782 12.0453L143.949 6.33203L142.117 0.61874C140.907 1.00687 139.733 1.56517 138.648 2.33197L142.113 7.23047ZM143.949 6.33203L145.782 12.0453C145.773 12.0481 145.92 12 146.293 12V6V0C144.921 0 143.505 0.173286 142.117 0.61874L143.949 6.33203ZM146.293 6V12H166.938V6V0H146.293V6ZM166.938 6H160.938V11.0781H166.938H172.938V6H166.938ZM166.938 11.0781V5.07812H146.293V11.0781V17.0781H166.938V11.0781ZM146.293 11.0781V5.07812C144.589 5.07812 142.341 5.54834 140.527 7.36283L144.77 11.6055L149.012 15.8481C147.901 16.9595 146.669 17.0781 146.293 17.0781V11.0781ZM144.77 11.6055L140.527 7.36283C138.672 9.21741 138.242 11.5152 138.242 13.168H144.242H150.242C150.242 13.4405 150.164 14.6966 149.012 15.8481L144.77 11.6055ZM144.242 13.168H138.242V26.8789H144.242H150.242V13.168H144.242ZM144.242 26.8789H138.242C138.242 28.6221 138.738 30.7911 140.45 32.5672L144.77 28.4023L149.089 24.2375C150.098 25.2844 150.242 26.4378 150.242 26.8789H144.242ZM144.77 28.4023L140.605 32.7214C142.381 34.434 144.55 34.9297 146.293 34.9297V28.9297V22.9297C146.734 22.9297 147.887 23.0738 148.934 24.0833L144.77 28.4023ZM146.293 28.9297V34.9297H162.094V28.9297V22.9297H146.293V28.9297ZM162.094 28.9297H168.094V22.5625H162.094H156.094V28.9297H162.094ZM162.094 22.5625V16.5625H148.578V22.5625V28.5625H162.094V22.5625ZM148.578 22.5625H154.578V17.4453H148.578H142.578V22.5625H148.578ZM148.578 17.4453V23.4453H164.613V17.4453V11.4453H148.578V17.4453ZM164.613 17.4453V23.4453C164.168 23.4453 163.648 23.3524 163.129 23.1145L165.629 17.6602L168.129 12.2058C166.985 11.6815 165.787 11.4453 164.613 11.4453V17.4453ZM165.629 17.6602L163.321 23.1986C162.897 23.0218 162.453 22.7347 162.068 22.3268L166.43 18.207L170.792 14.0873C169.964 13.2106 168.986 12.559 167.937 12.1217L165.629 17.6602ZM166.43 18.207L162.187 22.4497C161.855 22.1179 161.603 21.7301 161.438 21.335L166.977 19.0273L172.515 16.7197C172.09 15.6996 171.473 14.7649 170.672 13.9644L166.43 18.207ZM166.977 19.0273L161.474 21.4197C161.252 20.9079 161.172 20.4117 161.172 20.0039H167.172H173.172C173.172 18.893 172.962 17.7457 172.479 16.635L166.977 19.0273ZM167.172 20.0039H161.172V31.4492H167.172H173.172V20.0039H167.172ZM193.324 29.3008L199.061 31.0588C199.064 31.0503 199.066 31.0418 199.069 31.0332L193.324 29.3008ZM192.113 31.5664L187.42 27.8288L187.411 27.8399L192.113 31.5664ZM189.945 33.3047L187.17 27.9852C187.159 27.9907 187.149 27.9963 187.138 28.002L189.945 33.3047ZM175.258 33.6367L173.5 39.3734C173.508 39.376 173.517 39.3786 173.525 39.3812L175.258 33.6367ZM172.992 32.4453L169.212 37.1047C169.244 37.1306 169.276 37.1562 169.309 37.1814L172.992 32.4453ZM171.254 30.2773L165.934 33.0527C165.94 33.0634 165.946 33.074 165.951 33.0847L171.254 30.2773ZM170.922 24.7305L165.177 22.998L170.922 24.7305ZM172.113 22.4648L167.42 18.7273L167.411 18.7384L172.113 22.4648ZM174.281 20.707L171.506 15.3875C171.495 15.3931 171.485 15.3987 171.474 15.4043L174.281 20.707ZM186.703 20.0039H192.703C192.703 16.6902 190.017 14.0039 186.703 14.0039V20.0039ZM186.703 24.8477V30.8477C190.017 30.8477 192.703 28.1614 192.703 24.8477H186.703ZM175.941 25.4922L180.387 29.5213C180.408 29.4986 180.428 29.4758 180.448 29.4529L175.941 25.4922ZM176.02 28.6172L172.059 33.1242C172.107 33.1665 172.156 33.208 172.205 33.2488L176.02 28.6172ZM188.246 18.3047L184.074 22.6163C184.096 22.6384 184.119 22.6602 184.142 22.6819L188.246 18.3047ZM175.551 17.7188H169.551C169.551 21.0325 172.237 23.7188 175.551 23.7188V17.7188ZM175.551 12.8945V6.89453C172.237 6.89453 169.551 9.58082 169.551 12.8945H175.551ZM188.969 13.2656L187.211 19.0023C187.219 19.0049 187.228 19.0075 187.236 19.0101L188.969 13.2656ZM191.234 14.4766L187.454 19.1359C187.486 19.1618 187.518 19.1874 187.551 19.2127L191.234 14.4766ZM192.992 16.6445L187.673 19.4199C187.678 19.4306 187.684 19.4412 187.689 19.4519L192.992 16.6445ZM193.695 27.0156H187.695C187.695 27.0155 187.695 27.0264 187.693 27.0491C187.691 27.0719 187.688 27.1061 187.68 27.1525C187.665 27.2462 187.635 27.3837 187.58 27.5683L193.324 29.3008L199.069 31.0332C199.45 29.7691 199.695 28.4173 199.695 27.0156H193.695ZM193.324 29.3008L187.588 27.5428C187.575 27.5852 187.541 27.676 187.42 27.8288L192.113 31.5664L196.807 35.304C197.805 34.0506 198.579 32.6309 199.061 31.0588L193.324 29.3008ZM192.113 31.5664L187.411 27.8399C187.431 27.8144 187.436 27.8148 187.408 27.8375C187.378 27.8615 187.305 27.9146 187.17 27.9852L189.945 33.3047L192.721 38.6242C194.254 37.8242 195.672 36.7359 196.816 35.2929L192.113 31.5664ZM189.945 33.3047L187.138 28.002C187.322 27.9045 187.262 28.0078 186.703 28.0078V34.0078V40.0078C188.697 40.0078 190.798 39.6424 192.753 38.6074L189.945 33.3047ZM186.703 34.0078V28.0078H177.543V34.0078V40.0078H186.703V34.0078ZM177.543 34.0078V28.0078C177.543 28.0078 177.532 28.0078 177.51 28.0059C177.487 28.004 177.452 28.0002 177.406 27.9926C177.312 27.9774 177.175 27.948 176.99 27.8923L175.258 33.6367L173.525 39.3812C174.79 39.7624 176.141 40.0078 177.543 40.0078V34.0078ZM175.258 33.6367L177.016 27.9C176.944 27.8779 176.835 27.8332 176.676 27.7092L172.992 32.4453L169.309 37.1814C170.555 38.1512 171.957 38.9007 173.5 39.3734L175.258 33.6367ZM172.992 32.4453L176.772 27.7859C176.772 27.7853 176.767 27.7818 176.76 27.7739C176.752 27.766 176.739 27.752 176.721 27.7301C176.686 27.6866 176.628 27.6054 176.557 27.47L171.254 30.2773L165.951 33.0847C166.75 34.5929 167.82 35.9752 169.212 37.1047L172.992 32.4453ZM171.254 30.2773L176.573 27.5019C176.653 27.6539 176.551 27.5701 176.551 27.0156H170.551H164.551C164.551 29.0132 164.918 31.1039 165.934 33.0527L171.254 30.2773ZM170.551 27.0156H176.551C176.551 27.0158 176.551 27.0049 176.553 26.9822C176.555 26.9594 176.558 26.9251 176.566 26.8788C176.581 26.785 176.611 26.6476 176.666 26.4629L170.922 24.7305L165.177 22.998C164.796 24.2622 164.551 25.6139 164.551 27.0156H170.551ZM170.922 24.7305L176.666 26.4629C176.689 26.3872 176.726 26.3051 176.816 26.1913L172.113 22.4648L167.411 18.7384C166.407 20.0047 165.649 21.4331 165.177 22.998L170.922 24.7305ZM172.113 22.4648L176.807 26.2024C176.808 26.2014 176.811 26.1978 176.817 26.1914C176.824 26.1849 176.835 26.1738 176.854 26.1586C176.891 26.1286 176.964 26.0759 177.089 26.0098L174.281 20.707L171.474 15.4043C169.943 16.215 168.55 17.3078 167.42 18.7273L172.113 22.4648ZM174.281 20.707L177.057 26.0265C176.905 26.1058 176.988 26.0039 177.543 26.0039V20.0039V14.0039C175.545 14.0039 173.455 14.3707 171.506 15.3875L174.281 20.707ZM177.543 20.0039V26.0039H186.703V20.0039V14.0039H177.543V20.0039ZM186.703 20.0039H180.703V24.8477H186.703H192.703V20.0039H186.703ZM186.703 24.8477V18.8477H177.543V24.8477V30.8477H186.703V24.8477ZM177.543 24.8477V18.8477C175.516 18.8477 173.185 19.5396 171.434 21.5315L175.941 25.4922L180.448 29.4529C180.014 29.9475 179.464 30.3341 178.865 30.575C178.293 30.805 177.816 30.8477 177.543 30.8477V24.8477ZM175.941 25.4922L171.495 21.4631C170.004 23.1093 169.375 25.1195 169.375 27.0547H175.375H181.375C181.375 27.351 181.329 27.7666 181.157 28.2401C180.982 28.7237 180.714 29.161 180.387 29.5213L175.941 25.4922ZM175.375 27.0547H169.375C169.375 29.1378 170.119 31.4195 172.059 33.1242L176.02 28.6172L179.98 24.1102C180.446 24.5199 180.833 25.0508 181.083 25.6554C181.323 26.2381 181.375 26.7397 181.375 27.0547H175.375ZM176.02 28.6172L172.205 33.2488C173.773 34.5396 175.658 35.1641 177.582 35.1641V29.1641V23.1641C177.9 23.1641 178.295 23.2141 178.724 23.3642C179.157 23.5155 179.532 23.7368 179.834 23.9856L176.02 28.6172ZM177.582 29.1641V35.1641H186.703V29.1641V23.1641H177.582V29.1641ZM186.703 29.1641V35.1641C188.671 35.1641 190.984 34.5179 192.751 32.5682L188.305 28.5391L183.859 24.5099C184.306 24.0163 184.858 23.6452 185.44 23.4183C185.994 23.202 186.45 23.1641 186.703 23.1641V29.1641ZM188.305 28.5391L192.751 32.5682C194.242 30.922 194.871 28.9117 194.871 26.9766H188.871H182.871C182.871 26.6803 182.917 26.2646 183.089 25.7911C183.264 25.3076 183.532 24.8703 183.859 24.5099L188.305 28.5391ZM188.871 26.9766H194.871V19.8867H188.871H182.871V26.9766H188.871ZM188.871 19.8867H194.871C194.871 17.8589 194.176 15.6393 192.35 13.9275L188.246 18.3047L184.142 22.6819C183.709 22.2756 183.359 21.7647 183.135 21.1977C182.918 20.6503 182.871 20.1824 182.871 19.8867H188.871ZM188.246 18.3047L192.419 13.9931C190.766 12.3935 188.694 11.7188 186.703 11.7188V17.7188V23.7188C186.386 23.7188 185.937 23.6678 185.428 23.4744C184.907 23.2766 184.445 22.9755 184.074 22.6163L188.246 18.3047ZM186.703 17.7188V11.7188H175.551V17.7188V23.7188H186.703V17.7188ZM175.551 17.7188H181.551V12.8945H175.551H169.551V17.7188H175.551ZM175.551 12.8945V18.8945H186.703V12.8945V6.89453H175.551V12.8945ZM186.703 12.8945V18.8945C186.703 18.8945 186.742 18.8945 186.827 18.9084C186.912 18.9224 187.039 18.9498 187.211 19.0023L188.969 13.2656L190.727 7.52895C189.46 7.14085 188.108 6.89453 186.703 6.89453V12.8945ZM188.969 13.2656L187.236 19.0101C187.282 19.0239 187.347 19.0487 187.454 19.1359L191.234 14.4766L195.015 9.81719C193.742 8.78459 192.296 8.00213 190.701 7.52118L188.969 13.2656ZM191.234 14.4766L187.551 19.2127C187.526 19.1931 187.523 19.1857 187.541 19.2075C187.56 19.231 187.608 19.2951 187.673 19.4199L192.992 16.6445L198.312 13.8691C197.499 12.3124 196.389 10.8842 194.918 9.74045L191.234 14.4766ZM192.992 16.6445L187.689 19.4519C187.592 19.2678 187.695 19.3281 187.695 19.8867H193.695H199.695C199.695 17.8932 199.33 15.7921 198.295 13.8372L192.992 16.6445ZM193.695 19.8867H187.695V27.0156H193.695H199.695V19.8867H193.695ZM216.508 17.9727V23.9727C219.822 23.9727 222.508 21.2864 222.508 17.9727H216.508ZM203.52 18.5L207.681 22.8219C207.709 22.7957 207.735 22.7693 207.762 22.7426L203.52 18.5ZM202.992 34.0078V40.0078C206.306 40.0078 208.992 37.3215 208.992 34.0078H202.992ZM197.914 34.0078H191.914C191.914 37.3215 194.6 40.0078 197.914 40.0078V34.0078ZM198.246 17.6602L192.533 15.8276L198.246 17.6602ZM199.125 15.8438L194.227 12.379C194.221 12.387 194.215 12.395 194.21 12.403L199.125 15.8438ZM200.414 14.4961L204.035 19.2805C204.062 19.2601 204.089 19.2394 204.115 19.2184L200.414 14.4961ZM201.918 13.5781L199.506 8.08426C199.489 8.09163 199.472 8.09907 199.456 8.1066L201.918 13.5781ZM203.52 13.0703L204.669 18.9593C204.705 18.9522 204.741 18.9448 204.777 18.9371L203.52 13.0703ZM216.508 12.8945H222.508C222.508 9.58082 219.822 6.89453 216.508 6.89453V12.8945ZM216.508 17.9727V11.9727H205.082V17.9727V23.9727H216.508V17.9727ZM205.082 17.9727V11.9727C203.429 11.9727 201.131 12.4028 199.277 14.2574L203.52 18.5L207.762 22.7426C206.611 23.8941 205.355 23.9727 205.082 23.9727V17.9727ZM203.52 18.5L199.358 14.1781C197.457 16.0088 196.992 18.3159 196.992 20.0039H202.992H208.992C208.992 20.3638 208.879 21.6683 207.681 22.8219L203.52 18.5ZM202.992 20.0039H196.992V34.0078H202.992H208.992V20.0039H202.992ZM202.992 34.0078V28.0078H197.914V34.0078V40.0078H202.992V34.0078ZM197.914 34.0078H203.914V20.0039H197.914H191.914V34.0078H197.914ZM197.914 20.0039H203.914C203.914 19.631 203.962 19.4842 203.959 19.4927L198.246 17.6602L192.533 15.8276C192.087 17.2164 191.914 18.632 191.914 20.0039H197.914ZM198.246 17.6602L203.959 19.4927C204.022 19.2969 204.065 19.2489 204.04 19.2845L199.125 15.8438L194.21 12.403C193.456 13.4803 192.913 14.6432 192.533 15.8276L198.246 17.6602ZM199.125 15.8438L204.023 19.3085C204.051 19.2703 204.066 19.2543 204.066 19.2538C204.067 19.2533 204.064 19.256 204.059 19.261C204.053 19.2661 204.045 19.2728 204.035 19.2805L200.414 14.4961L196.793 9.71165C195.782 10.4772 194.931 11.3835 194.227 12.379L199.125 15.8438ZM200.414 14.4961L204.115 19.2184C204.243 19.1184 204.331 19.0716 204.38 19.0497L201.918 13.5781L199.456 8.1066C198.463 8.55345 197.549 9.11861 196.713 9.77376L200.414 14.4961ZM201.918 13.5781L204.33 19.072C204.488 19.0028 204.599 18.9729 204.669 18.9593L203.52 13.0703L202.37 7.18137C201.372 7.3761 200.416 7.68471 199.506 8.08426L201.918 13.5781ZM203.52 13.0703L204.777 18.9371C204.987 18.8921 205.069 18.8945 205.043 18.8945V12.8945V6.89453C204.08 6.89453 203.146 7.01419 202.262 7.2035L203.52 13.0703ZM205.043 12.8945V18.8945H216.508V12.8945V6.89453H205.043V12.8945ZM216.508 12.8945H210.508V17.9727H216.508H222.508V12.8945H216.508ZM239.652 29.3008L245.389 31.0588C245.392 31.0503 245.394 31.0418 245.397 31.0332L239.652 29.3008ZM238.441 31.5664L233.748 27.8288L233.739 27.8399L238.441 31.5664ZM236.273 33.3047L233.498 27.9852C233.487 27.9907 233.477 27.9963 233.466 28.002L236.273 33.3047ZM221.586 33.6367L219.828 39.3734C219.836 39.376 219.845 39.3786 219.853 39.3812L221.586 33.6367ZM219.32 32.4453L215.54 37.1047C215.572 37.1306 215.604 37.1562 215.637 37.1814L219.32 32.4453ZM217.582 30.2773L212.263 33.0527C212.268 33.0634 212.274 33.074 212.279 33.0847L217.582 30.2773ZM217.25 24.7305L211.506 22.998L217.25 24.7305ZM218.441 22.4648L213.748 18.7273L213.739 18.7384L218.441 22.4648ZM220.609 20.707L217.834 15.3875C217.823 15.3931 217.813 15.3987 217.802 15.4043L220.609 20.707ZM233.031 20.0039H239.031C239.031 16.6902 236.345 14.0039 233.031 14.0039V20.0039ZM233.031 24.8477V30.8477C236.345 30.8477 239.031 28.1614 239.031 24.8477H233.031ZM222.27 25.4922L226.715 29.5213C226.736 29.4986 226.756 29.4758 226.777 29.4529L222.27 25.4922ZM222.348 28.6172L218.387 33.1242C218.435 33.1665 218.484 33.208 218.533 33.2488L222.348 28.6172ZM234.574 18.3047L230.402 22.6163C230.424 22.6384 230.447 22.6602 230.471 22.6819L234.574 18.3047ZM221.879 17.7188H215.879C215.879 21.0325 218.565 23.7188 221.879 23.7188V17.7188ZM221.879 12.8945V6.89453C218.565 6.89453 215.879 9.58082 215.879 12.8945H221.879ZM235.297 13.2656L233.539 19.0023C233.547 19.0049 233.556 19.0075 233.564 19.0101L235.297 13.2656ZM237.562 14.4766L233.782 19.1359C233.814 19.1618 233.846 19.1874 233.879 19.2127L237.562 14.4766ZM239.32 16.6445L234.001 19.4199C234.006 19.4306 234.012 19.4412 234.018 19.4519L239.32 16.6445ZM240.023 27.0156H234.023C234.023 27.0155 234.023 27.0264 234.022 27.0491C234.02 27.0719 234.016 27.1061 234.008 27.1525C233.993 27.2462 233.964 27.3837 233.908 27.5683L239.652 29.3008L245.397 31.0332C245.778 29.7691 246.023 28.4173 246.023 27.0156H240.023ZM239.652 29.3008L233.916 27.5428C233.903 27.5852 233.869 27.676 233.748 27.8288L238.441 31.5664L243.135 35.304C244.133 34.0506 244.907 32.6309 245.389 31.0588L239.652 29.3008ZM238.441 31.5664L233.739 27.8399C233.759 27.8144 233.764 27.8148 233.736 27.8375C233.706 27.8615 233.633 27.9146 233.498 27.9852L236.273 33.3047L239.049 38.6242C240.582 37.8242 242 36.7359 243.144 35.2929L238.441 31.5664ZM236.273 33.3047L233.466 28.002C233.65 27.9045 233.59 28.0078 233.031 28.0078V34.0078V40.0078C235.025 40.0078 237.126 39.6424 239.081 38.6074L236.273 33.3047ZM233.031 34.0078V28.0078H223.871V34.0078V40.0078H233.031V34.0078ZM223.871 34.0078V28.0078C223.871 28.0078 223.86 28.0078 223.838 28.0059C223.815 28.004 223.781 28.0002 223.734 27.9926C223.641 27.9774 223.503 27.948 223.318 27.8923L221.586 33.6367L219.853 39.3812C221.118 39.7624 222.469 40.0078 223.871 40.0078V34.0078ZM221.586 33.6367L223.344 27.9C223.272 27.8779 223.163 27.8332 223.004 27.7092L219.32 32.4453L215.637 37.1814C216.884 38.1512 218.286 38.9007 219.828 39.3734L221.586 33.6367ZM219.32 32.4453L223.101 27.7859C223.1 27.7853 223.096 27.7818 223.088 27.7739C223.08 27.766 223.067 27.752 223.049 27.7301C223.014 27.6866 222.956 27.6054 222.885 27.47L217.582 30.2773L212.279 33.0847C213.078 34.5929 214.148 35.9752 215.54 37.1047L219.32 32.4453ZM217.582 30.2773L222.902 27.5019C222.981 27.6539 222.879 27.5701 222.879 27.0156H216.879H210.879C210.879 29.0132 211.246 31.1039 212.263 33.0527L217.582 30.2773ZM216.879 27.0156H222.879C222.879 27.0158 222.879 27.0049 222.881 26.9822C222.883 26.9594 222.887 26.9251 222.894 26.8788C222.909 26.785 222.939 26.6476 222.994 26.4629L217.25 24.7305L211.506 22.998C211.124 24.2622 210.879 25.6139 210.879 27.0156H216.879ZM217.25 24.7305L222.994 26.4629C223.017 26.3872 223.054 26.3051 223.144 26.1913L218.441 22.4648L213.739 18.7384C212.735 20.0047 211.978 21.4331 211.506 22.998L217.25 24.7305ZM218.441 22.4648L223.135 26.2024C223.136 26.2014 223.139 26.1978 223.145 26.1914C223.152 26.1849 223.163 26.1738 223.182 26.1586C223.219 26.1286 223.292 26.0759 223.417 26.0098L220.609 20.707L217.802 15.4043C216.271 16.215 214.878 17.3078 213.748 18.7273L218.441 22.4648ZM220.609 20.707L223.385 26.0265C223.233 26.1058 223.317 26.0039 223.871 26.0039V20.0039V14.0039C221.874 14.0039 219.783 14.3707 217.834 15.3875L220.609 20.707ZM223.871 20.0039V26.0039H233.031V20.0039V14.0039H223.871V20.0039ZM233.031 20.0039H227.031V24.8477H233.031H239.031V20.0039H233.031ZM233.031 24.8477V18.8477H223.871V24.8477V30.8477H233.031V24.8477ZM223.871 24.8477V18.8477C221.844 18.8477 219.513 19.5396 217.763 21.5315L222.27 25.4922L226.777 29.4529C226.342 29.9475 225.792 30.3341 225.193 30.575C224.621 30.805 224.144 30.8477 223.871 30.8477V24.8477ZM222.27 25.4922L217.824 21.4631C216.332 23.1093 215.703 25.1195 215.703 27.0547H221.703H227.703C227.703 27.351 227.657 27.7666 227.486 28.2401C227.31 28.7237 227.042 29.161 226.715 29.5213L222.27 25.4922ZM221.703 27.0547H215.703C215.703 29.1378 216.447 31.4195 218.387 33.1242L222.348 28.6172L226.308 24.1102C226.775 24.5199 227.161 25.0508 227.411 25.6554C227.651 26.2381 227.703 26.7397 227.703 27.0547H221.703ZM222.348 28.6172L218.533 33.2488C220.101 34.5396 221.986 35.1641 223.91 35.1641V29.1641V23.1641C224.228 23.1641 224.624 23.2141 225.052 23.3642C225.485 23.5155 225.86 23.7368 226.162 23.9856L222.348 28.6172ZM223.91 29.1641V35.1641H233.031V29.1641V23.1641H223.91V29.1641ZM233.031 29.1641V35.1641C234.999 35.1641 237.312 34.5179 239.079 32.5682L234.633 28.5391L230.187 24.5099C230.634 24.0163 231.187 23.6452 231.768 23.4183C232.322 23.202 232.779 23.1641 233.031 23.1641V29.1641ZM234.633 28.5391L239.079 32.5682C240.571 30.922 241.199 28.9117 241.199 26.9766H235.199H229.199C229.199 26.6803 229.245 26.2646 229.417 25.7911C229.592 25.3076 229.86 24.8703 230.187 24.5099L234.633 28.5391ZM235.199 26.9766H241.199V19.8867H235.199H229.199V26.9766H235.199ZM235.199 19.8867H241.199C241.199 17.8589 240.504 15.6393 238.678 13.9275L234.574 18.3047L230.471 22.6819C230.037 22.2756 229.687 21.7647 229.463 21.1977C229.246 20.6503 229.199 20.1824 229.199 19.8867H235.199ZM234.574 18.3047L238.747 13.9931C237.094 12.3935 235.022 11.7188 233.031 11.7188V17.7188V23.7188C232.714 23.7188 232.265 23.6678 231.756 23.4744C231.235 23.2766 230.773 22.9755 230.402 22.6163L234.574 18.3047ZM233.031 17.7188V11.7188H221.879V17.7188V23.7188H233.031V17.7188ZM221.879 17.7188H227.879V12.8945H221.879H215.879V17.7188H221.879ZM221.879 12.8945V18.8945H233.031V12.8945V6.89453H221.879V12.8945ZM233.031 12.8945V18.8945C233.031 18.8945 233.07 18.8945 233.155 18.9084C233.241 18.9224 233.367 18.9498 233.539 19.0023L235.297 13.2656L237.055 7.52895C235.788 7.14085 234.436 6.89453 233.031 6.89453V12.8945ZM235.297 13.2656L233.564 19.0101C233.61 19.0239 233.675 19.0487 233.782 19.1359L237.562 14.4766L241.343 9.81719C240.07 8.78459 238.624 8.00213 237.029 7.52118L235.297 13.2656ZM237.562 14.4766L233.879 19.2127C233.854 19.1931 233.851 19.1857 233.869 19.2075C233.888 19.231 233.936 19.2951 234.001 19.4199L239.32 16.6445L244.64 13.8691C243.828 12.3124 242.717 10.8842 241.246 9.74045L237.562 14.4766ZM239.32 16.6445L234.018 19.4519C233.92 19.2678 234.023 19.3281 234.023 19.8867H240.023H246.023C246.023 17.8932 245.658 15.7921 244.623 13.8372L239.32 16.6445ZM240.023 19.8867H234.023V27.0156H240.023H246.023V19.8867H240.023ZM266.996 38.3828L261.283 36.5502C261.28 36.5605 261.276 36.5708 261.273 36.5811L266.996 38.3828ZM266.117 40.2188L261.202 36.778C261.189 36.7969 261.175 36.8159 261.162 36.835L266.117 40.2188ZM264.848 41.5664L261.227 36.782C261.2 36.8024 261.173 36.8231 261.146 36.8441L264.848 41.5664ZM263.324 42.4844L260.912 36.9905C260.896 36.9979 260.879 37.0053 260.862 37.0128L263.324 42.4844ZM261.723 42.9922L260.6 37.0982C260.545 37.1086 260.491 37.1198 260.436 37.1317L261.723 42.9922ZM251.039 43.168H245.039C245.039 46.4817 247.725 49.168 251.039 49.168V43.168ZM251.039 38.0898V32.0898C247.725 32.0898 245.039 34.7761 245.039 38.0898H251.039ZM261.742 37.5625L266.064 41.7243L261.742 37.5625ZM261.742 18.5L257.42 22.6618C257.446 22.689 257.473 22.716 257.5 22.7426L261.742 18.5ZM249.555 18.5586L253.871 22.7262C253.895 22.7018 253.918 22.6773 253.941 22.6525L249.555 18.5586ZM260.199 28.9297H266.199C266.199 25.616 263.513 22.9297 260.199 22.9297V28.9297ZM260.199 34.0078V40.0078C263.513 40.0078 266.199 37.3215 266.199 34.0078H260.199ZM249.516 33.8516L248.229 39.712C248.275 39.7221 248.321 39.7315 248.367 39.7405L249.516 33.8516ZM247.914 33.3242L245.452 38.7957C245.469 38.8033 245.485 38.8107 245.502 38.8181L247.914 33.3242ZM246.41 32.4258L242.709 37.1481C242.736 37.169 242.762 37.1897 242.79 37.2102L246.41 32.4258ZM245.141 31.0781L240.186 34.4619C240.199 34.481 240.212 34.5 240.225 34.5189L245.141 31.0781ZM244.262 29.2422L238.539 31.0439C238.542 31.0542 238.545 31.0645 238.548 31.0748L244.262 29.2422ZM244.086 18.4805L238.225 17.194C238.215 17.2397 238.206 17.2855 238.197 17.3314L244.086 18.4805ZM244.613 16.8984L250.085 19.3606C250.092 19.3439 250.1 19.3272 250.107 19.3104L244.613 16.8984ZM245.512 15.375L240.789 11.6737C240.768 11.7004 240.748 11.7273 240.727 11.7543L245.512 15.375ZM246.859 14.1055L243.476 9.15066C243.457 9.16369 243.438 9.17683 243.419 9.19008L246.859 14.1055ZM261.723 13.0703L260.436 18.9308C260.491 18.9427 260.545 18.9539 260.6 18.9643L261.723 13.0703ZM263.324 13.5781L260.862 19.0497C260.879 19.0572 260.896 19.0646 260.912 19.072L263.324 13.5781ZM264.848 14.4961L261.146 19.2184C261.173 19.2394 261.2 19.2601 261.227 19.2805L264.848 14.4961ZM266.117 15.8438L261.162 19.2275C261.175 19.2466 261.189 19.2656 261.202 19.2845L266.117 15.8438ZM267.328 36.0391H261.328C261.328 36.412 261.28 36.5588 261.283 36.5502L266.996 38.3828L272.709 40.2154C273.155 38.8266 273.328 37.411 273.328 36.0391H267.328ZM266.996 38.3828L261.273 36.5811C261.207 36.7909 261.164 36.8317 261.202 36.778L266.117 40.2188L271.033 43.6595C271.799 42.5641 272.343 41.381 272.719 40.1845L266.996 38.3828ZM266.117 40.2188L261.162 36.835C261.148 36.8557 261.146 36.8555 261.159 36.8419C261.172 36.8279 261.195 36.8062 261.227 36.782L264.848 41.5664L268.468 46.3508C269.503 45.568 270.367 44.6348 271.072 43.6025L266.117 40.2188ZM264.848 41.5664L261.146 36.8441C261.041 36.9269 260.963 36.9681 260.912 36.9905L263.324 42.4844L265.736 47.9782C266.753 47.5319 267.691 46.9611 268.549 46.2887L264.848 41.5664ZM263.324 42.4844L260.862 37.0128C260.758 37.0594 260.673 37.0842 260.6 37.0982L261.723 42.9922L262.845 48.8862C263.866 48.6919 264.848 48.3781 265.786 47.9559L263.324 42.4844ZM261.723 42.9922L260.436 37.1317C260.269 37.1683 260.195 37.168 260.199 37.168V43.168V49.168C261.167 49.168 262.108 49.0504 263.009 48.8527L261.723 42.9922ZM260.199 43.168V37.168H251.039V43.168V49.168H260.199V43.168ZM251.039 43.168H257.039V38.0898H251.039H245.039V43.168H251.039ZM251.039 38.0898V44.0898H260.199V38.0898V32.0898H251.039V38.0898ZM260.199 38.0898V44.0898C261.833 44.0898 264.193 43.6669 266.064 41.7243L261.742 37.5625L257.42 33.4007C258.614 32.1612 259.945 32.0898 260.199 32.0898V38.0898ZM261.742 37.5625L266.064 41.7243C267.819 39.9019 268.25 37.6845 268.25 36.0391H262.25H256.25C256.25 35.7218 256.342 34.5199 257.42 33.4007L261.742 37.5625ZM262.25 36.0391H268.25V20.0039H262.25H256.25V36.0391H262.25ZM262.25 20.0039H268.25C268.25 18.3758 267.826 16.0982 265.985 14.2574L261.742 18.5L257.5 22.7426C256.336 21.5789 256.25 20.3039 256.25 20.0039H262.25ZM261.742 18.5L266.064 14.3382C264.193 12.3956 261.833 11.9727 260.199 11.9727V17.9727V23.9727C259.945 23.9727 258.614 23.9013 257.42 22.6618L261.742 18.5ZM260.199 17.9727V11.9727H251.039V17.9727V23.9727H260.199V17.9727ZM251.039 17.9727V11.9727C249.059 11.9727 246.862 12.6501 245.168 14.4647L249.555 18.5586L253.941 22.6525C253.518 23.1059 252.988 23.4689 252.402 23.7001C251.837 23.9232 251.351 23.9727 251.039 23.9727V17.9727ZM249.555 18.5586L245.238 14.391C243.664 16.0212 243.008 18.0599 243.008 20.0039H249.008H255.008C255.008 20.3376 254.955 20.8023 254.756 21.3265C254.553 21.8626 254.244 22.34 253.871 22.7262L249.555 18.5586ZM249.008 20.0039H243.008V26.8789H249.008H255.008V20.0039H249.008ZM249.008 26.8789H243.008C243.008 28.5828 243.478 30.8305 245.293 32.645L249.535 28.4023L253.778 24.1597C254.889 25.2711 255.008 26.5031 255.008 26.8789H249.008ZM249.535 28.4023L245.293 32.645C247.127 34.4799 249.4 34.9297 251.078 34.9297V28.9297V22.9297C251.402 22.9297 252.646 23.028 253.778 24.1597L249.535 28.4023ZM251.078 28.9297V34.9297H260.199V28.9297V22.9297H251.078V28.9297ZM260.199 28.9297H254.199V34.0078H260.199H266.199V28.9297H260.199ZM260.199 34.0078V28.0078H251.039V34.0078V40.0078H260.199V34.0078ZM251.039 34.0078V28.0078C250.989 28.0078 250.868 28.0022 250.665 27.9626L249.516 33.8516L248.367 39.7405C249.231 39.9093 250.126 40.0078 251.039 40.0078V34.0078ZM249.516 33.8516L250.802 27.9911C250.679 27.9641 250.522 27.9162 250.326 27.8304L247.914 33.3242L245.502 38.8181C246.374 39.2009 247.284 39.5046 248.229 39.712L249.516 33.8516ZM247.914 33.3242L250.376 27.8527C250.289 27.8135 250.174 27.7498 250.031 27.6413L246.41 32.4258L242.79 37.2102C243.61 37.8309 244.497 38.3662 245.452 38.7957L247.914 33.3242ZM246.41 32.4258L250.111 27.7034C250.109 27.7019 250.106 27.6988 250.099 27.6915C250.092 27.6841 250.077 27.6675 250.056 27.6374L245.141 31.0781L240.225 34.5189C240.916 35.5056 241.744 36.3916 242.709 37.1481L246.41 32.4258ZM245.141 31.0781L250.095 27.6944C250.094 27.6921 250.041 27.6145 249.975 27.4096L244.262 29.2422L238.548 31.0748C238.925 32.2501 239.458 33.3964 240.186 34.4619L245.141 31.0781ZM244.262 29.2422L249.985 27.4405C249.977 27.4158 249.93 27.249 249.93 26.8789H243.93H237.93C237.93 28.2536 238.104 29.6623 238.539 31.0439L244.262 29.2422ZM243.93 26.8789H249.93V20.0039H243.93H237.93V26.8789H243.93ZM243.93 20.0039H249.93C249.93 19.9535 249.935 19.8324 249.975 19.6295L244.086 18.4805L238.197 17.3314C238.028 18.1962 237.93 19.0908 237.93 20.0039H243.93ZM244.086 18.4805L249.946 19.7669C249.971 19.6551 250.013 19.5209 250.085 19.3606L244.613 16.8984L239.142 14.4362C238.745 15.3176 238.435 16.2382 238.225 17.194L244.086 18.4805ZM244.613 16.8984L250.107 19.3104C250.146 19.2211 250.204 19.1172 250.296 18.9957L245.512 15.375L240.727 11.7543C240.09 12.5964 239.549 13.5081 239.119 14.4865L244.613 16.8984ZM245.512 15.375L250.234 19.0763C250.236 19.0743 250.239 19.0705 250.246 19.0636C250.253 19.0566 250.27 19.042 250.3 19.0209L246.859 14.1055L243.419 9.19008C242.432 9.88077 241.546 10.7085 240.789 11.6737L245.512 15.375ZM246.859 14.1055L250.243 19.0603C250.245 19.0587 250.323 19.0056 250.528 18.9399L248.695 13.2266L246.863 7.51327C245.687 7.89026 244.541 8.42302 243.476 9.15066L246.859 14.1055ZM248.695 13.2266L250.528 18.9399C250.519 18.9426 250.666 18.8945 251.039 18.8945V12.8945V6.89453C249.667 6.89453 248.252 7.06782 246.863 7.51327L248.695 13.2266ZM251.039 12.8945V18.8945H260.199V12.8945V6.89453H251.039V12.8945ZM260.199 12.8945V18.8945C260.195 18.8945 260.269 18.8942 260.436 18.9308L261.723 13.0703L263.009 7.20985C262.108 7.01207 261.167 6.89453 260.199 6.89453V12.8945ZM261.723 13.0703L260.6 18.9643C260.673 18.9783 260.758 19.0031 260.862 19.0497L263.324 13.5781L265.786 8.1066C264.848 7.68445 263.866 7.37061 262.845 7.17628L261.723 13.0703ZM263.324 13.5781L260.912 19.072C260.963 19.0944 261.041 19.1356 261.146 19.2184L264.848 14.4961L268.549 9.77376C267.691 9.10143 266.753 8.5306 265.736 8.08426L263.324 13.5781ZM264.848 14.4961L261.227 19.2805C261.195 19.2563 261.172 19.2346 261.159 19.2206C261.146 19.207 261.148 19.2068 261.162 19.2275L266.117 15.8438L271.072 12.46C270.367 11.4278 269.503 10.4945 268.468 9.71165L264.848 14.4961ZM266.117 15.8438L261.202 19.2845C261.177 19.2489 261.22 19.2969 261.283 19.4927L266.996 17.6602L272.709 15.8276C272.329 14.6432 271.787 13.4803 271.033 12.403L266.117 15.8438ZM266.996 17.6602L261.283 19.4927C261.28 19.4842 261.328 19.631 261.328 20.0039H267.328H273.328C273.328 18.632 273.155 17.2164 272.709 15.8276L266.996 17.6602ZM267.328 20.0039H261.328V36.0391H267.328H273.328V20.0039H267.328ZM294.32 22.1719L300.057 23.9299C300.06 23.9214 300.062 23.9129 300.065 23.9043L294.32 22.1719ZM293.109 24.4375L288.416 20.6999L288.407 20.711L293.109 24.4375ZM290.941 26.1758L288.166 20.8563C288.155 20.8618 288.145 20.8674 288.134 20.8731L290.941 26.1758ZM278.539 26.8789H272.539C272.539 30.1926 275.225 32.8789 278.539 32.8789V26.8789ZM278.539 22.0547V16.0547C275.225 16.0547 272.539 18.741 272.539 22.0547H278.539ZM289.301 21.4297L293.747 25.4588C293.767 25.4361 293.788 25.4133 293.808 25.3904L289.301 21.4297ZM289.223 18.2852L285.194 22.7311C285.216 22.7516 285.239 22.772 285.262 22.7921L289.223 18.2852ZM276.938 18.3633L281.383 22.3924C281.404 22.3697 281.424 22.3469 281.444 22.324L276.938 18.3633ZM276.996 28.5977L272.967 33.0436C272.99 33.0641 273.012 33.0845 273.035 33.1046L276.996 28.5977ZM287.699 29.1641H293.699C293.699 25.8504 291.013 23.1641 287.699 23.1641V29.1641ZM287.699 34.0078V40.0078C291.013 40.0078 293.699 37.3215 293.699 34.0078H287.699ZM276.254 33.6367L274.496 39.3734C274.504 39.376 274.513 39.3786 274.521 39.3812L276.254 33.6367ZM273.988 32.4453L270.208 37.1047C270.24 37.1306 270.272 37.1562 270.305 37.1814L273.988 32.4453ZM272.25 30.2773L266.93 33.0527C266.936 33.0634 266.942 33.074 266.947 33.0847L272.25 30.2773ZM271.918 17.6211L277.655 19.3791C277.657 19.3706 277.66 19.3621 277.662 19.3535L271.918 17.6211ZM273.109 15.3555L268.416 11.6179L268.407 11.629L273.109 15.3555ZM275.277 13.5977L272.502 8.27815C272.491 8.28371 272.481 8.2893 272.47 8.29493L275.277 13.5977ZM289.965 13.2656L288.207 19.0023C288.215 19.0049 288.224 19.0075 288.232 19.0101L289.965 13.2656ZM292.23 14.4766L288.45 19.1359C288.482 19.1618 288.514 19.1874 288.547 19.2127L292.23 14.4766ZM293.988 16.6445L288.669 19.4199C288.674 19.4306 288.68 19.4412 288.686 19.4519L293.988 16.6445ZM294.691 19.8867H288.691C288.691 19.8866 288.691 19.8974 288.689 19.9202C288.688 19.943 288.684 19.9772 288.676 20.0236C288.661 20.1173 288.632 20.2548 288.576 20.4394L294.32 22.1719L300.065 23.9043C300.446 22.6402 300.691 21.2884 300.691 19.8867H294.691ZM294.32 22.1719L288.584 20.4139C288.571 20.4563 288.537 20.5471 288.416 20.6999L293.109 24.4375L297.803 28.1751C298.801 26.9217 299.575 25.502 300.057 23.9299L294.32 22.1719ZM293.109 24.4375L288.407 20.711C288.427 20.6855 288.432 20.6859 288.404 20.7086C288.374 20.7326 288.301 20.7857 288.166 20.8563L290.941 26.1758L293.717 31.4953C295.25 30.6953 296.668 29.607 297.812 28.164L293.109 24.4375ZM290.941 26.1758L288.134 20.8731C288.318 20.7756 288.258 20.8789 287.699 20.8789V26.8789V32.8789C289.693 32.8789 291.794 32.5135 293.749 31.4785L290.941 26.1758ZM287.699 26.8789V20.8789H278.539V26.8789V32.8789H287.699V26.8789ZM278.539 26.8789H284.539V22.0547H278.539H272.539V26.8789H278.539ZM278.539 22.0547V28.0547H287.699V22.0547V16.0547H278.539V22.0547ZM287.699 22.0547V28.0547C289.667 28.0547 291.98 27.4086 293.747 25.4588L289.301 21.4297L284.855 17.4006C285.302 16.9069 285.854 16.5359 286.436 16.309C286.99 16.0926 287.447 16.0547 287.699 16.0547V22.0547ZM289.301 21.4297L293.808 25.3904C295.24 23.7609 295.867 21.7847 295.867 19.8477H289.867H283.867C283.867 19.5501 283.913 19.1454 284.077 18.6895C284.243 18.2255 284.494 17.8101 284.794 17.469L289.301 21.4297ZM289.867 19.8477H295.867C295.867 17.7646 295.123 15.4828 293.183 13.7782L289.223 18.2852L285.262 22.7921C284.796 22.3825 284.409 21.8516 284.159 21.247C283.919 20.6643 283.867 20.1627 283.867 19.8477H289.867ZM289.223 18.2852L293.252 13.8392C291.655 12.3925 289.682 11.7188 287.699 11.7188V17.7188V23.7188C287.36 23.7188 286.921 23.6635 286.438 23.4842C285.95 23.3027 285.529 23.0348 285.194 22.7311L289.223 18.2852ZM287.699 17.7188V11.7188H278.539V17.7188V23.7188H287.699V17.7188ZM278.539 17.7188V11.7188C276.512 11.7188 274.181 12.4107 272.431 14.4026L276.938 18.3633L281.444 22.324C281.01 22.8186 280.46 23.2052 279.861 23.446C279.289 23.6761 278.812 23.7188 278.539 23.7188V17.7188ZM276.938 18.3633L272.492 14.3342C271 15.9804 270.371 17.9906 270.371 19.9258H276.371H282.371C282.371 20.2221 282.325 20.6377 282.154 21.1112C281.978 21.5947 281.71 22.0321 281.383 22.3924L276.938 18.3633ZM276.371 19.9258H270.371V27.0156H276.371H282.371V19.9258H276.371ZM276.371 27.0156H270.371C270.371 29.0109 271.042 31.2987 272.967 33.0436L276.996 28.5977L281.025 24.1517C281.505 24.5865 281.876 25.1292 282.108 25.7144C282.329 26.2745 282.371 26.7427 282.371 27.0156H276.371ZM276.996 28.5977L273.035 33.1046C274.665 34.5366 276.641 35.1641 278.578 35.1641V29.1641V23.1641C278.876 23.1641 279.28 23.2103 279.736 23.3736C280.2 23.5397 280.616 23.7909 280.957 24.0907L276.996 28.5977ZM278.578 29.1641V35.1641H287.699V29.1641V23.1641H278.578V29.1641ZM287.699 29.1641H281.699V34.0078H287.699H293.699V29.1641H287.699ZM287.699 34.0078V28.0078H278.539V34.0078V40.0078H287.699V34.0078ZM278.539 34.0078V28.0078C278.539 28.0078 278.528 28.0078 278.506 28.0059C278.483 28.004 278.449 28.0002 278.402 27.9926C278.308 27.9774 278.171 27.948 277.986 27.8923L276.254 33.6367L274.521 39.3812C275.786 39.7624 277.137 40.0078 278.539 40.0078V34.0078ZM276.254 33.6367L278.012 27.9C277.94 27.8779 277.831 27.8332 277.672 27.7092L273.988 32.4453L270.305 37.1814C271.551 38.1512 272.954 38.9007 274.496 39.3734L276.254 33.6367ZM273.988 32.4453L277.769 27.7859C277.768 27.7853 277.763 27.7818 277.756 27.7739C277.748 27.766 277.735 27.752 277.717 27.7301C277.682 27.6866 277.624 27.6054 277.553 27.47L272.25 30.2773L266.947 33.0847C267.746 34.5929 268.816 35.9752 270.208 37.1047L273.988 32.4453ZM272.25 30.2773L277.57 27.5019C277.649 27.6539 277.547 27.5701 277.547 27.0156H271.547H265.547C265.547 29.0132 265.914 31.1039 266.93 33.0527L272.25 30.2773ZM271.547 27.0156H277.547V19.8867H271.547H265.547V27.0156H271.547ZM271.547 19.8867H277.547C277.547 19.8871 277.547 19.8476 277.561 19.7628C277.575 19.6774 277.602 19.5506 277.655 19.3791L271.918 17.6211L266.181 15.8631C265.793 17.1295 265.547 18.4822 265.547 19.8867H271.547ZM271.918 17.6211L277.662 19.3535C277.685 19.2778 277.722 19.1958 277.812 19.082L273.109 15.3555L268.407 11.629C267.403 12.8954 266.645 14.3237 266.174 15.8886L271.918 17.6211ZM273.109 15.3555L277.803 19.093C277.804 19.092 277.807 19.0884 277.813 19.082C277.82 19.0755 277.831 19.0645 277.85 19.0492C277.887 19.0192 277.96 18.9665 278.085 18.9004L275.277 13.5977L272.47 8.29493C270.939 9.10562 269.546 10.1985 268.416 11.6179L273.109 15.3555ZM275.277 13.5977L278.053 18.9172C277.901 18.9965 277.985 18.8945 278.539 18.8945V12.8945V6.89453C276.542 6.89453 274.451 7.26136 272.502 8.27815L275.277 13.5977ZM278.539 12.8945V18.8945H287.699V12.8945V6.89453H278.539V12.8945ZM287.699 12.8945V18.8945C287.699 18.8945 287.738 18.8945 287.823 18.9084C287.909 18.9224 288.035 18.9498 288.207 19.0023L289.965 13.2656L291.723 7.52895C290.456 7.14085 289.104 6.89453 287.699 6.89453V12.8945ZM289.965 13.2656L288.232 19.0101C288.278 19.0239 288.343 19.0487 288.45 19.1359L292.23 14.4766L296.011 9.81719C294.738 8.78459 293.292 8.00213 291.697 7.52118L289.965 13.2656ZM292.23 14.4766L288.547 19.2127C288.522 19.1931 288.519 19.1857 288.537 19.2075C288.556 19.231 288.604 19.2951 288.669 19.4199L293.988 16.6445L299.308 13.8691C298.496 12.3124 297.385 10.8842 295.914 9.74045L292.23 14.4766ZM293.988 16.6445L288.686 19.4519C288.588 19.2678 288.691 19.3281 288.691 19.8867H294.691H300.691C300.691 17.8932 300.326 15.7921 299.291 13.8372L293.988 16.6445Z" fill="white" mask="url(#path-1-outside-1_30_151)"/>
</svg>
